<?xml version="1.0" encoding="UTF-8"?>
<svg id="Layer_2" data-name="Layer 2" xmlns="http://www.w3.org/2000/svg" viewBox="0 0 688 84.2">
  <defs>
    <style>
      .cls-1 {
        fill: #faff40;
      }

      .cls-2 {
        fill: #f8ff54;
      }
    </style>
  </defs>
  <g id="Layer_1-2" data-name="Layer 1">
    <g>
      <path class="cls-1" d="M8.24,28.92V4.48H0V.92h20.8v3.56h-8.28v24.44h-4.28Z"/>
      <path class="cls-1" d="M23.28,28.92V.92h4.24v11c.67-1.07,1.6-1.89,2.8-2.46,1.2-.57,2.45-.86,3.76-.86,2.29,0,4.15.73,5.58,2.18,1.43,1.45,2.14,3.62,2.14,6.5v11.64h-4.24v-11.12c0-1.76-.4-3.13-1.2-4.12-.8-.99-1.97-1.48-3.52-1.48s-2.89.54-3.86,1.62c-.97,1.08-1.46,2.57-1.46,4.46v10.64h-4.24Z"/>
      <path class="cls-1" d="M54.36,29.4c-1.97,0-3.71-.44-5.2-1.32-1.49-.88-2.66-2.11-3.5-3.68-.84-1.57-1.26-3.37-1.26-5.4s.42-3.93,1.26-5.48c.84-1.55,2.01-2.75,3.5-3.62,1.49-.87,3.24-1.3,5.24-1.3s3.59.42,5.02,1.26c1.43.84,2.55,1.99,3.38,3.44.83,1.45,1.24,3.1,1.24,4.94,0,.35,0,.66-.02.94-.01.28-.05.61-.1.98h-15.24c.08,1.12.36,2.11.84,2.96s1.13,1.53,1.94,2.02c.81.49,1.75.74,2.82.74,1.17,0,2.16-.26,2.96-.78.8-.52,1.41-1.26,1.84-2.22h4.4c-.35,1.2-.93,2.29-1.74,3.28-.81.99-1.84,1.77-3.08,2.36-1.24.59-2.67.88-4.3.88ZM48.72,17.12h11c-.05-1.55-.61-2.77-1.66-3.66-1.05-.89-2.31-1.34-3.78-1.34-1.33,0-2.55.41-3.64,1.24-1.09.83-1.73,2.08-1.92,3.76Z"/>
      <path class="cls-1" d="M82.2,29.4c-1.25,0-2.41-.23-3.48-.7-1.07-.47-1.92-1.15-2.56-2.06-.64-.91-.96-2-.96-3.28,0-1.49.38-2.71,1.14-3.64.76-.93,1.79-1.61,3.08-2.04,1.29-.43,2.71-.64,4.26-.64h5.04c0-1.15-.19-2.07-.56-2.78-.37-.71-.89-1.23-1.54-1.58-.65-.35-1.41-.52-2.26-.52-1.09,0-2.06.26-2.9.78-.84.52-1.37,1.35-1.58,2.5h-4.28c.13-1.44.62-2.67,1.46-3.68.84-1.01,1.91-1.79,3.2-2.34,1.29-.55,2.67-.82,4.14-.82,1.95,0,3.55.35,4.8,1.06,1.25.71,2.2,1.69,2.84,2.94s.96,2.69.96,4.32v6.04c.03.77.19,1.34.5,1.7.31.36.85.57,1.62.62v3.64c-1.07,0-1.99-.12-2.76-.36-.77-.24-1.42-.6-1.94-1.08s-.93-1.12-1.22-1.92c-.64,1.09-1.57,2.01-2.8,2.74-1.23.73-2.63,1.1-4.2,1.1ZM83.2,25.92c1.12,0,2.09-.27,2.9-.82.81-.55,1.45-1.26,1.92-2.14.47-.88.7-1.84.7-2.88v-.12h-4.76c-.75,0-1.46.09-2.14.28-.68.19-1.23.5-1.64.94-.41.44-.62,1.05-.62,1.82,0,1.01.36,1.75,1.08,2.22.72.47,1.57.7,2.56.7Z"/>
      <path class="cls-1" d="M97.6,28.92V9.08h4.08l.08,2.92c.67-1.09,1.59-1.93,2.78-2.52,1.19-.59,2.45-.88,3.78-.88,2.32,0,4.2.73,5.64,2.18,1.44,1.45,2.16,3.62,2.16,6.5v11.64h-4.24v-11.12c0-1.76-.41-3.13-1.22-4.12-.81-.99-2.01-1.48-3.58-1.48s-2.87.54-3.82,1.62c-.95,1.08-1.42,2.57-1.42,4.46v10.64h-4.24Z"/>
      <path class="cls-1" d="M127.32,29.4c-1.52,0-2.92-.27-4.2-.82-1.28-.55-2.32-1.33-3.12-2.34-.8-1.01-1.27-2.2-1.4-3.56h4.28c.19.96.68,1.75,1.48,2.36.8.61,1.79.92,2.96.92,1.09,0,1.97-.23,2.62-.7.65-.47.98-1.09.98-1.86,0-.67-.21-1.19-.64-1.56-.43-.37-.99-.66-1.68-.86-.69-.2-1.44-.39-2.24-.58-1.23-.27-2.38-.61-3.46-1.04-1.08-.43-1.95-1.02-2.62-1.78-.67-.76-1-1.75-1-2.98s.33-2.33,1-3.22c.67-.89,1.57-1.58,2.72-2.06s2.44-.72,3.88-.72c2.16,0,3.96.55,5.4,1.64,1.44,1.09,2.24,2.67,2.4,4.72h-4.08c-.11-.93-.5-1.65-1.18-2.16-.68-.51-1.57-.76-2.66-.76-.96,0-1.75.19-2.36.58-.61.39-.92.98-.92,1.78,0,.53.21.97.64,1.32.43.35.98.64,1.66.88.68.24,1.39.44,2.14.6,1.36.32,2.57.69,3.64,1.12,1.07.43,1.92,1.02,2.56,1.78.64.76.96,1.82.96,3.18.03,1.25-.3,2.34-.98,3.26-.68.92-1.61,1.63-2.78,2.12-1.17.49-2.51.74-4,.74Z"/>
      <path class="cls-1" d="M141.48,28.92l-5.88-19.84h4.28l3.88,15.32,4.24-15.32h4.6l4.2,15.28,3.88-15.28h4.16l-5.84,19.8h-4.48l-4.28-15.08-4.28,15.12h-4.48Z"/>
      <path class="cls-1" d="M175.16,29.4c-1.97,0-3.71-.44-5.2-1.32-1.49-.88-2.66-2.11-3.5-3.68-.84-1.57-1.26-3.37-1.26-5.4s.42-3.93,1.26-5.48c.84-1.55,2.01-2.75,3.5-3.62,1.49-.87,3.24-1.3,5.24-1.3s3.59.42,5.02,1.26c1.43.84,2.55,1.99,3.38,3.44.83,1.45,1.24,3.1,1.24,4.94,0,.35,0,.66-.02.94-.01.28-.05.61-.1.98h-15.24c.08,1.12.36,2.11.84,2.96s1.13,1.53,1.94,2.02c.81.49,1.75.74,2.82.74,1.17,0,2.16-.26,2.96-.78.8-.52,1.41-1.26,1.84-2.22h4.4c-.35,1.2-.93,2.29-1.74,3.28-.81.99-1.84,1.77-3.08,2.36-1.24.59-2.67.88-4.3.88ZM169.52,17.12h11c-.05-1.55-.61-2.77-1.66-3.66-1.05-.89-2.31-1.34-3.78-1.34-1.33,0-2.55.41-3.64,1.24-1.09.83-1.73,2.08-1.92,3.76Z"/>
      <path class="cls-1" d="M187.6,28.92V9.08h4.08l.12,3.36c.67-1.2,1.58-2.14,2.74-2.82,1.16-.68,2.51-1.02,4.06-1.02v4.44h-1.12c-1.92,0-3.34.49-4.26,1.46-.92.97-1.38,2.46-1.38,4.46v9.96h-4.24Z"/>
      <path class="cls-1" d="M217.76,28.92c-1.97,0-3.49-.48-4.54-1.44-1.05-.96-1.58-2.53-1.58-4.72v-10.12h-3v-3.56h3v-4.8h4.24v4.8h5.04v3.56h-5.04v10.12c0,1.01.23,1.69.68,2.04.45.35,1.16.52,2.12.52h2.24v3.6h-3.16Z"/>
      <path class="cls-1" d="M232.8,29.4c-1.89,0-3.61-.42-5.16-1.26-1.55-.84-2.77-2.05-3.66-3.62-.89-1.57-1.34-3.41-1.34-5.52s.46-4.01,1.38-5.56c.92-1.55,2.16-2.74,3.72-3.58s3.3-1.26,5.22-1.26,3.66.42,5.22,1.26,2.8,2.03,3.72,3.58c.92,1.55,1.38,3.4,1.38,5.56,0,2-.45,3.79-1.34,5.36-.89,1.57-2.13,2.81-3.7,3.7-1.57.89-3.39,1.34-5.44,1.34ZM232.84,25.72c1.2,0,2.25-.29,3.16-.88.91-.59,1.63-1.39,2.16-2.42.53-1.03.8-2.19.8-3.5s-.25-2.5-.76-3.5c-.51-1-1.21-1.77-2.12-2.32-.91-.55-1.96-.82-3.16-.82s-2.33.29-3.22.88c-.89.59-1.57,1.39-2.04,2.4-.47,1.01-.7,2.16-.7,3.44,0,1.44.27,2.67.82,3.68.55,1.01,1.27,1.77,2.18,2.28.91.51,1.87.76,2.88.76Z"/>
      <path class="cls-1" d="M264.6,29.4c-1.97,0-3.71-.44-5.2-1.32-1.49-.88-2.66-2.11-3.5-3.68-.84-1.57-1.26-3.37-1.26-5.4s.42-3.93,1.26-5.48c.84-1.55,2.01-2.75,3.5-3.62,1.49-.87,3.24-1.3,5.24-1.3s3.59.42,5.02,1.26c1.43.84,2.55,1.99,3.38,3.44.83,1.45,1.24,3.1,1.24,4.94,0,.35,0,.66-.02.94-.01.28-.05.61-.1.98h-15.24c.08,1.12.36,2.11.84,2.96s1.13,1.53,1.94,2.02c.81.49,1.75.74,2.82.74,1.17,0,2.16-.26,2.96-.78.8-.52,1.41-1.26,1.84-2.22h4.4c-.35,1.2-.93,2.29-1.74,3.28-.81.99-1.84,1.77-3.08,2.36-1.24.59-2.67.88-4.3.88ZM258.96,17.12h11c-.05-1.55-.61-2.77-1.66-3.66-1.05-.89-2.31-1.34-3.78-1.34-1.33,0-2.55.41-3.64,1.24-1.09.83-1.73,2.08-1.92,3.76Z"/>
      <path class="cls-1" d="M281.88,28.92l-7.48-19.84h4.52l5.52,15.92,5.52-15.92h4.44l-7.48,19.84h-5.04Z"/>
      <path class="cls-1" d="M304.6,29.4c-1.97,0-3.71-.44-5.2-1.32-1.49-.88-2.66-2.11-3.5-3.68-.84-1.57-1.26-3.37-1.26-5.4s.42-3.93,1.26-5.48c.84-1.55,2.01-2.75,3.5-3.62,1.49-.87,3.24-1.3,5.24-1.3s3.59.42,5.02,1.26c1.43.84,2.55,1.99,3.38,3.44.83,1.45,1.24,3.1,1.24,4.94,0,.35,0,.66-.02.94-.01.28-.05.61-.1.98h-15.24c.08,1.12.36,2.11.84,2.96s1.13,1.53,1.94,2.02c.81.49,1.75.74,2.82.74,1.17,0,2.16-.26,2.96-.78.8-.52,1.41-1.26,1.84-2.22h4.4c-.35,1.2-.93,2.29-1.74,3.28-.81.99-1.84,1.77-3.08,2.36-1.24.59-2.67.88-4.3.88ZM298.96,17.12h11c-.05-1.55-.61-2.77-1.66-3.66-1.05-.89-2.31-1.34-3.78-1.34-1.33,0-2.55.41-3.64,1.24-1.09.83-1.73,2.08-1.92,3.76Z"/>
      <path class="cls-1" d="M317.04,28.92V9.08h4.08l.12,3.36c.67-1.2,1.58-2.14,2.74-2.82,1.16-.68,2.51-1.02,4.06-1.02v4.44h-1.12c-1.92,0-3.34.49-4.26,1.46-.92.97-1.38,2.46-1.38,4.46v9.96h-4.24Z"/>
      <path class="cls-1" d="M332.32,37.72l4.36-9.68-8.28-18.96h4.72l5.8,14.48,6.12-14.48h4.44l-12.68,28.64h-4.48Z"/>
      <path class="cls-1" d="M360.4,28.92V9.08h4.08l.12,2.56c.64-.99,1.49-1.74,2.54-2.26,1.05-.52,2.21-.78,3.46-.78,1.52,0,2.89.31,4.1.94,1.21.63,2.15,1.61,2.82,2.94.69-1.23,1.64-2.18,2.84-2.86,1.2-.68,2.51-1.02,3.92-1.02,1.55,0,2.92.31,4.12.94,1.2.63,2.14,1.58,2.82,2.86.68,1.28,1.02,2.89,1.02,4.84v11.68h-4.2v-11.12c0-1.76-.39-3.12-1.16-4.08s-1.92-1.44-3.44-1.44-2.73.53-3.64,1.58c-.91,1.05-1.36,2.53-1.36,4.42v10.64h-4.24v-11.12c0-1.79-.39-3.15-1.18-4.1-.79-.95-1.93-1.42-3.42-1.42-1.36,0-2.53.5-3.5,1.5-.97,1-1.46,2.5-1.46,4.5v10.64h-4.24Z"/>
      <path class="cls-1" d="M401.96,29.4c-1.25,0-2.41-.23-3.48-.7-1.07-.47-1.92-1.15-2.56-2.06-.64-.91-.96-2-.96-3.28,0-1.49.38-2.71,1.14-3.64.76-.93,1.79-1.61,3.08-2.04,1.29-.43,2.71-.64,4.26-.64h5.04c0-1.15-.19-2.07-.56-2.78-.37-.71-.89-1.23-1.54-1.58-.65-.35-1.41-.52-2.26-.52-1.09,0-2.06.26-2.9.78-.84.52-1.37,1.35-1.58,2.5h-4.28c.13-1.44.62-2.67,1.46-3.68.84-1.01,1.91-1.79,3.2-2.34,1.29-.55,2.67-.82,4.14-.82,1.95,0,3.55.35,4.8,1.06,1.25.71,2.2,1.69,2.84,2.94s.96,2.69.96,4.32v6.04c.03.77.19,1.34.5,1.7.31.36.85.57,1.62.62v3.64c-1.07,0-1.99-.12-2.76-.36-.77-.24-1.42-.6-1.94-1.08s-.93-1.12-1.22-1.92c-.64,1.09-1.57,2.01-2.8,2.74-1.23.73-2.63,1.1-4.2,1.1ZM402.96,25.92c1.12,0,2.09-.27,2.9-.82.81-.55,1.45-1.26,1.92-2.14.47-.88.7-1.84.7-2.88v-.12h-4.76c-.75,0-1.46.09-2.14.28-.68.19-1.23.5-1.64.94-.41.44-.62,1.05-.62,1.82,0,1.01.36,1.75,1.08,2.22.72.47,1.57.7,2.56.7Z"/>
      <path class="cls-1" d="M417.36,28.92V9.08h4.08l.12,3.36c.67-1.2,1.58-2.14,2.74-2.82,1.16-.68,2.51-1.02,4.06-1.02v4.44h-1.12c-1.92,0-3.34.49-4.26,1.46-.92.97-1.38,2.46-1.38,4.46v9.96h-4.24Z"/>
      <path class="cls-1" d="M430.64,28.92V.92h4.24v16.56l7.36-8.4h5.36l-8.76,9.48,9.4,10.36h-5.48l-7.88-9.36v9.36h-4.24Z"/>
      <path class="cls-1" d="M458.08,29.4c-1.97,0-3.71-.44-5.2-1.32-1.49-.88-2.66-2.11-3.5-3.68-.84-1.57-1.26-3.37-1.26-5.4s.42-3.93,1.26-5.48c.84-1.55,2.01-2.75,3.5-3.62,1.49-.87,3.24-1.3,5.24-1.3s3.59.42,5.02,1.26c1.43.84,2.55,1.99,3.38,3.44.83,1.45,1.24,3.1,1.24,4.94,0,.35,0,.66-.02.94-.01.28-.05.61-.1.98h-15.24c.08,1.12.36,2.11.84,2.96s1.13,1.53,1.94,2.02c.81.49,1.75.74,2.82.74,1.17,0,2.16-.26,2.96-.78.8-.52,1.41-1.26,1.84-2.22h4.4c-.35,1.2-.93,2.29-1.74,3.28-.81.99-1.84,1.77-3.08,2.36-1.24.59-2.67.88-4.3.88ZM452.44,17.12h11c-.05-1.55-.61-2.77-1.66-3.66-1.05-.89-2.31-1.34-3.78-1.34-1.33,0-2.55.41-3.64,1.24-1.09.83-1.73,2.08-1.92,3.76Z"/>
      <path class="cls-1" d="M477.8,28.92c-1.97,0-3.49-.48-4.54-1.44-1.05-.96-1.58-2.53-1.58-4.72v-10.12h-3v-3.56h3v-4.8h4.24v4.8h5.04v3.56h-5.04v10.12c0,1.01.23,1.69.68,2.04.45.35,1.16.52,2.12.52h2.24v3.6h-3.16Z"/>
      <path class="cls-1" d="M486.36,5.6c-.8,0-1.47-.27-2.02-.82-.55-.55-.82-1.21-.82-1.98s.27-1.47.82-2c.55-.53,1.22-.8,2.02-.8s1.47.27,2.02.8c.55.53.82,1.2.82,2s-.27,1.43-.82,1.98-1.22.82-2.02.82ZM484.24,28.92V9.08h4.24v19.84h-4.24Z"/>
      <path class="cls-1" d="M492.48,28.92V9.08h4.08l.08,2.92c.67-1.09,1.59-1.93,2.78-2.52,1.19-.59,2.45-.88,3.78-.88,2.32,0,4.2.73,5.64,2.18,1.44,1.45,2.16,3.62,2.16,6.5v11.64h-4.24v-11.12c0-1.76-.41-3.13-1.22-4.12-.81-.99-2.01-1.48-3.58-1.48s-2.87.54-3.82,1.62c-.95,1.08-1.42,2.57-1.42,4.46v10.64h-4.24Z"/>
      <path class="cls-1" d="M522.52,38.2c-1.71,0-3.28-.2-4.72-.6-1.44-.4-2.59-1.06-3.46-1.98-.87-.92-1.3-2.13-1.3-3.62,0-1.01.23-1.87.68-2.58.45-.71,1.09-1.27,1.92-1.7-.67-.4-1.19-.89-1.56-1.48-.37-.59-.56-1.25-.56-2,0-1.71.77-3.04,2.32-4-.56-.61-.99-1.31-1.3-2.08-.31-.77-.46-1.6-.46-2.48,0-1.47.34-2.73,1.02-3.78.68-1.05,1.63-1.87,2.84-2.44,1.21-.57,2.59-.86,4.14-.86,1.12,0,2.17.16,3.16.48h6.96v3.36h-2.92c.24.48.43.99.58,1.54.15.55.22,1.11.22,1.7,0,1.44-.35,2.69-1.06,3.74-.71,1.05-1.66,1.87-2.86,2.44-1.2.57-2.56.86-4.08.86-.69,0-1.33-.07-1.92-.2-.59-.13-1.17-.35-1.76-.64-.64.32-.96.83-.96,1.52,0,1.23,1.05,1.84,3.16,1.84h3.48c1.55,0,2.89.21,4.02.62,1.13.41,2.01,1.07,2.64,1.98.63.91.94,2.09.94,3.56s-.42,2.67-1.26,3.68c-.84,1.01-1.95,1.79-3.34,2.32-1.39.53-2.91.8-4.56.8ZM522.48,34.8c1.44,0,2.66-.25,3.66-.76,1-.51,1.5-1.28,1.5-2.32,0-1.92-1.24-2.88-3.72-2.88h-3.12c-1.17,0-2.09.25-2.76.74-.67.49-1,1.21-1,2.14,0,.75.25,1.35.76,1.8.51.45,1.17.78,2,.98.83.2,1.72.3,2.68.3ZM522,19.32c1.2,0,2.19-.35,2.96-1.04.77-.69,1.16-1.56,1.16-2.6s-.39-1.95-1.16-2.64c-.77-.69-1.76-1.04-2.96-1.04s-2.13.35-2.86,1.04c-.73.69-1.1,1.57-1.1,2.64s.35,1.91,1.06,2.6c.71.69,1.67,1.04,2.9,1.04Z"/>
      <path class="cls-1" d="M543.6,37.72V9.08h4.08l.16,3c.69-1.01,1.63-1.85,2.8-2.5,1.17-.65,2.56-.98,4.16-.98,1.97,0,3.67.46,5.08,1.38,1.41.92,2.5,2.17,3.26,3.74.76,1.57,1.14,3.32,1.14,5.24s-.39,3.71-1.16,5.3c-.77,1.59-1.87,2.84-3.28,3.76-1.41.92-3.09,1.38-5.04,1.38-1.65,0-3.07-.34-4.26-1.02-1.19-.68-2.09-1.5-2.7-2.46v11.8h-4.24ZM553.92,25.68c1.2,0,2.25-.29,3.16-.88.91-.59,1.62-1.39,2.14-2.4.52-1.01.78-2.16.78-3.44s-.26-2.5-.78-3.5-1.24-1.77-2.16-2.32c-.92-.55-1.97-.82-3.14-.82s-2.21.28-3.12.84c-.91.56-1.62,1.35-2.14,2.36-.52,1.01-.78,2.17-.78,3.48,0,1.23.25,2.35.76,3.38.51,1.03,1.21,1.83,2.1,2.42.89.59,1.95.88,3.18.88Z"/>
      <path class="cls-1" d="M567.32,28.92V9.08h4.08l.12,3.36c.67-1.2,1.58-2.14,2.74-2.82,1.16-.68,2.51-1.02,4.06-1.02v4.44h-1.12c-1.92,0-3.34.49-4.26,1.46-.92.97-1.38,2.46-1.38,4.46v9.96h-4.24Z"/>
      <path class="cls-1" d="M589.44,29.4c-1.89,0-3.61-.42-5.16-1.26-1.55-.84-2.77-2.05-3.66-3.62-.89-1.57-1.34-3.41-1.34-5.52s.46-4.01,1.38-5.56c.92-1.55,2.16-2.74,3.72-3.58s3.3-1.26,5.22-1.26,3.66.42,5.22,1.26,2.8,2.03,3.72,3.58c.92,1.55,1.38,3.4,1.38,5.56,0,2-.45,3.79-1.34,5.36-.89,1.57-2.13,2.81-3.7,3.7-1.57.89-3.39,1.34-5.44,1.34ZM589.48,25.72c1.2,0,2.25-.29,3.16-.88.91-.59,1.63-1.39,2.16-2.42.53-1.03.8-2.19.8-3.5s-.25-2.5-.76-3.5c-.51-1-1.21-1.77-2.12-2.32-.91-.55-1.96-.82-3.16-.82s-2.33.29-3.22.88c-.89.59-1.57,1.39-2.04,2.4-.47,1.01-.7,2.16-.7,3.44,0,1.44.27,2.67.82,3.68.55,1.01,1.27,1.77,2.18,2.28.91.51,1.87.76,2.88.76Z"/>
      <path class="cls-1" d="M614.16,29.4c-1.49,0-2.85-.29-4.06-.88-1.21-.59-2.18-1.45-2.9-2.6l-.16,3h-4.08V.92h4.24v11.2c.69-1.04,1.63-1.89,2.8-2.54,1.17-.65,2.56-.98,4.16-.98,1.95,0,3.63.46,5.04,1.38,1.41.92,2.51,2.16,3.28,3.72.77,1.56,1.16,3.31,1.16,5.26s-.39,3.71-1.16,5.3c-.77,1.59-1.87,2.84-3.28,3.76-1.41.92-3.09,1.38-5.04,1.38ZM613.28,25.68c1.2,0,2.25-.29,3.16-.86.91-.57,1.62-1.37,2.14-2.4.52-1.03.78-2.18.78-3.46s-.26-2.5-.78-3.5-1.24-1.77-2.16-2.32c-.92-.55-1.97-.82-3.14-.82s-2.25.28-3.14.84c-.89.56-1.6,1.35-2.12,2.36-.52,1.01-.78,2.17-.78,3.48s.26,2.43.78,3.44c.52,1.01,1.23,1.81,2.12,2.38.89.57,1.94.86,3.14.86Z"/>
      <path class="cls-1" d="M626.6,28.92V.92h4.24v28h-4.24Z"/>
      <path class="cls-1" d="M643.72,29.4c-1.97,0-3.71-.44-5.2-1.32-1.49-.88-2.66-2.11-3.5-3.68-.84-1.57-1.26-3.37-1.26-5.4s.42-3.93,1.26-5.48c.84-1.55,2.01-2.75,3.5-3.62,1.49-.87,3.24-1.3,5.24-1.3s3.59.42,5.02,1.26c1.43.84,2.55,1.99,3.38,3.44.83,1.45,1.24,3.1,1.24,4.94,0,.35,0,.66-.02.94-.01.28-.05.61-.1.98h-15.24c.08,1.12.36,2.11.84,2.96s1.13,1.53,1.94,2.02c.81.49,1.75.74,2.82.74,1.17,0,2.16-.26,2.96-.78.8-.52,1.41-1.26,1.84-2.22h4.4c-.35,1.2-.93,2.29-1.74,3.28-.81.99-1.84,1.77-3.08,2.36-1.24.59-2.67.88-4.3.88ZM638.08,17.12h11c-.05-1.55-.61-2.77-1.66-3.66-1.05-.89-2.31-1.34-3.78-1.34-1.33,0-2.55.41-3.64,1.24-1.09.83-1.73,2.08-1.92,3.76Z"/>
      <path class="cls-1" d="M656.16,28.92V9.08h4.08l.12,2.56c.64-.99,1.49-1.74,2.54-2.26,1.05-.52,2.21-.78,3.46-.78,1.52,0,2.89.31,4.1.94,1.21.63,2.15,1.61,2.82,2.94.69-1.23,1.64-2.18,2.84-2.86,1.2-.68,2.51-1.02,3.92-1.02,1.55,0,2.92.31,4.12.94,1.2.63,2.14,1.58,2.82,2.86.68,1.28,1.02,2.89,1.02,4.84v11.68h-4.2v-11.12c0-1.76-.39-3.12-1.16-4.08s-1.92-1.44-3.44-1.44-2.73.53-3.64,1.58c-.91,1.05-1.36,2.53-1.36,4.42v10.64h-4.24v-11.12c0-1.79-.39-3.15-1.18-4.1-.79-.95-1.93-1.42-3.42-1.42-1.36,0-2.53.5-3.5,1.5-.97,1-1.46,2.5-1.46,4.5v10.64h-4.24Z"/>
      <path class="cls-1" d="M90.68,51.6c-.8,0-1.47-.27-2.02-.82-.55-.55-.82-1.21-.82-1.98s.27-1.47.82-2c.55-.53,1.22-.8,2.02-.8s1.47.27,2.02.8c.55.53.82,1.2.82,2s-.27,1.43-.82,1.98-1.22.82-2.02.82ZM88.56,74.92v-19.84h4.24v19.84h-4.24Z"/>
      <path class="cls-1" d="M104.64,75.4c-1.52,0-2.92-.27-4.2-.82-1.28-.55-2.32-1.33-3.12-2.34-.8-1.01-1.27-2.2-1.4-3.56h4.28c.19.96.68,1.75,1.48,2.36.8.61,1.79.92,2.96.92,1.09,0,1.97-.23,2.62-.7.65-.47.98-1.09.98-1.86,0-.67-.21-1.19-.64-1.56-.43-.37-.99-.66-1.68-.86-.69-.2-1.44-.39-2.24-.58-1.23-.27-2.38-.61-3.46-1.04-1.08-.43-1.95-1.02-2.62-1.78-.67-.76-1-1.75-1-2.98s.33-2.33,1-3.22c.67-.89,1.57-1.58,2.72-2.06s2.44-.72,3.88-.72c2.16,0,3.96.55,5.4,1.64,1.44,1.09,2.24,2.67,2.4,4.72h-4.08c-.11-.93-.5-1.65-1.18-2.16-.68-.51-1.57-.76-2.66-.76-.96,0-1.75.19-2.36.58-.61.39-.92.98-.92,1.78,0,.53.21.97.64,1.32.43.35.98.64,1.66.88.68.24,1.39.44,2.14.6,1.36.32,2.57.69,3.64,1.12,1.07.43,1.92,1.02,2.56,1.78.64.76.96,1.82.96,3.18.03,1.25-.3,2.34-.98,3.26-.68.92-1.61,1.63-2.78,2.12-1.17.49-2.51.74-4,.74Z"/>
      <path class="cls-1" d="M115.48,74.92v-19.84h4.08l.08,2.92c.67-1.09,1.59-1.93,2.78-2.52,1.19-.59,2.45-.88,3.78-.88,2.32,0,4.2.73,5.64,2.18,1.44,1.45,2.16,3.62,2.16,6.5v11.64h-4.24v-11.12c0-1.76-.41-3.13-1.22-4.12-.81-.99-2.01-1.48-3.58-1.48s-2.87.54-3.82,1.62c-.95,1.08-1.42,2.57-1.42,4.46v10.64h-4.24Z"/>
      <path class="cls-1" d="M136.56,56.32l2.28-9.4h4.56l-3.88,9.4h-2.96Z"/>
      <path class="cls-1" d="M153.92,74.92c-1.97,0-3.49-.48-4.54-1.44-1.05-.96-1.58-2.53-1.58-4.72v-10.12h-3v-3.56h3v-4.8h4.24v4.8h5.04v3.56h-5.04v10.12c0,1.01.23,1.69.68,2.04.45.35,1.16.52,2.12.52h2.24v3.6h-3.16Z"/>
      <path class="cls-1" d="M175.8,75.4c-1.25,0-2.41-.23-3.48-.7-1.07-.47-1.92-1.15-2.56-2.06-.64-.91-.96-2-.96-3.28,0-1.49.38-2.71,1.14-3.64.76-.93,1.79-1.61,3.08-2.04,1.29-.43,2.71-.64,4.26-.64h5.04c0-1.15-.19-2.07-.56-2.78-.37-.71-.89-1.23-1.54-1.58-.65-.35-1.41-.52-2.26-.52-1.09,0-2.06.26-2.9.78-.84.52-1.37,1.35-1.58,2.5h-4.28c.13-1.44.62-2.67,1.46-3.68.84-1.01,1.91-1.79,3.2-2.34,1.29-.55,2.67-.82,4.14-.82,1.95,0,3.55.35,4.8,1.06,1.25.71,2.2,1.69,2.84,2.94s.96,2.69.96,4.32v6.04c.03.77.19,1.34.5,1.7.31.36.85.57,1.62.62v3.64c-1.07,0-1.99-.12-2.76-.36-.77-.24-1.42-.6-1.94-1.08s-.93-1.12-1.22-1.92c-.64,1.09-1.57,2.01-2.8,2.74-1.23.73-2.63,1.1-4.2,1.1ZM176.8,71.92c1.12,0,2.09-.27,2.9-.82.81-.55,1.45-1.26,1.92-2.14.47-.88.7-1.84.7-2.88v-.12h-4.76c-.75,0-1.46.09-2.14.28-.68.19-1.23.5-1.64.94-.41.44-.62,1.05-.62,1.82,0,1.01.36,1.75,1.08,2.22.72.47,1.57.7,2.56.7Z"/>
      <path class="cls-1" d="M191.2,74.92v-19.84h4.08l.08,2.92c.67-1.09,1.59-1.93,2.78-2.52,1.19-.59,2.45-.88,3.78-.88,2.32,0,4.2.73,5.64,2.18,1.44,1.45,2.16,3.62,2.16,6.5v11.64h-4.24v-11.12c0-1.76-.41-3.13-1.22-4.12-.81-.99-2.01-1.48-3.58-1.48s-2.87.54-3.82,1.62c-.95,1.08-1.42,2.57-1.42,4.46v10.64h-4.24Z"/>
      <path class="cls-1" d="M228.48,75.4c-1.25,0-2.41-.23-3.48-.7-1.07-.47-1.92-1.15-2.56-2.06-.64-.91-.96-2-.96-3.28,0-1.49.38-2.71,1.14-3.64.76-.93,1.79-1.61,3.08-2.04,1.29-.43,2.71-.64,4.26-.64h5.04c0-1.15-.19-2.07-.56-2.78-.37-.71-.89-1.23-1.54-1.58-.65-.35-1.41-.52-2.26-.52-1.09,0-2.06.26-2.9.78-.84.52-1.37,1.35-1.58,2.5h-4.28c.13-1.44.62-2.67,1.46-3.68.84-1.01,1.91-1.79,3.2-2.34,1.29-.55,2.67-.82,4.14-.82,1.95,0,3.55.35,4.8,1.06,1.25.71,2.2,1.69,2.84,2.94s.96,2.69.96,4.32v6.04c.03.77.19,1.34.5,1.7.31.36.85.57,1.62.62v3.64c-1.07,0-1.99-.12-2.76-.36-.77-.24-1.42-.6-1.94-1.08s-.93-1.12-1.22-1.92c-.64,1.09-1.57,2.01-2.8,2.74-1.23.73-2.63,1.1-4.2,1.1ZM229.48,71.92c1.12,0,2.09-.27,2.9-.82.81-.55,1.45-1.26,1.92-2.14.47-.88.7-1.84.7-2.88v-.12h-4.76c-.75,0-1.46.09-2.14.28-.68.19-1.23.5-1.64.94-.41.44-.62,1.05-.62,1.82,0,1.01.36,1.75,1.08,2.22.72.47,1.57.7,2.56.7Z"/>
      <path class="cls-1" d="M252.24,75.4c-1.97,0-3.67-.47-5.08-1.42-1.41-.95-2.51-2.21-3.28-3.78-.77-1.57-1.16-3.33-1.16-5.28s.39-3.66,1.16-5.22c.77-1.56,1.87-2.8,3.3-3.72,1.43-.92,3.13-1.38,5.1-1.38,1.44,0,2.77.3,3.98.9,1.21.6,2.19,1.45,2.94,2.54v-11.12h4.24v28h-4.08l-.16-3.04c-.67,1.01-1.6,1.85-2.8,2.52-1.2.67-2.59,1-4.16,1ZM253.08,71.68c1.28,0,2.37-.29,3.26-.88.89-.59,1.59-1.39,2.08-2.4.49-1.01.74-2.15.74-3.4,0-1.41-.27-2.62-.82-3.62-.55-1-1.28-1.76-2.2-2.28s-1.94-.78-3.06-.78-2.21.28-3.1.84c-.89.56-1.6,1.33-2.12,2.32-.52.99-.78,2.15-.78,3.48s.27,2.51.8,3.52c.53,1.01,1.25,1.8,2.16,2.36.91.56,1.92.84,3.04.84Z"/>
      <path class="cls-1" d="M272.84,74.92l-7.48-19.84h4.52l5.52,15.92,5.52-15.92h4.44l-7.48,19.84h-5.04Z"/>
      <path class="cls-1" d="M295.56,75.4c-1.97,0-3.71-.44-5.2-1.32-1.49-.88-2.66-2.11-3.5-3.68-.84-1.57-1.26-3.37-1.26-5.4s.42-3.93,1.26-5.48c.84-1.55,2.01-2.75,3.5-3.62,1.49-.87,3.24-1.3,5.24-1.3s3.59.42,5.02,1.26c1.43.84,2.55,1.99,3.38,3.44.83,1.45,1.24,3.1,1.24,4.94,0,.35,0,.66-.02.94-.01.28-.05.61-.1.98h-15.24c.08,1.12.36,2.11.84,2.96s1.13,1.53,1.94,2.02c.81.49,1.75.74,2.82.74,1.17,0,2.16-.26,2.96-.78.8-.52,1.41-1.26,1.84-2.22h4.4c-.35,1.2-.93,2.29-1.74,3.28-.81.99-1.84,1.77-3.08,2.36-1.24.59-2.67.88-4.3.88ZM289.92,63.12h11c-.05-1.55-.61-2.77-1.66-3.66-1.05-.89-2.31-1.34-3.78-1.34-1.33,0-2.55.41-3.64,1.24-1.09.83-1.73,2.08-1.92,3.76Z"/>
      <path class="cls-1" d="M308,74.92v-19.84h4.08l.12,3.36c.67-1.2,1.58-2.14,2.74-2.82,1.16-.68,2.51-1.02,4.06-1.02v4.44h-1.12c-1.92,0-3.34.49-4.26,1.46-.92.97-1.38,2.46-1.38,4.46v9.96h-4.24Z"/>
      <path class="cls-1" d="M329.28,74.92c-1.97,0-3.49-.48-4.54-1.44-1.05-.96-1.58-2.53-1.58-4.72v-10.12h-3v-3.56h3v-4.8h4.24v4.8h5.04v3.56h-5.04v10.12c0,1.01.23,1.69.68,2.04.45.35,1.16.52,2.12.52h2.24v3.6h-3.16Z"/>
      <path class="cls-1" d="M337.84,51.6c-.8,0-1.47-.27-2.02-.82-.55-.55-.82-1.21-.82-1.98s.27-1.47.82-2c.55-.53,1.22-.8,2.02-.8s1.47.27,2.02.8c.55.53.82,1.2.82,2s-.27,1.43-.82,1.98-1.22.82-2.02.82ZM335.72,74.92v-19.84h4.24v19.84h-4.24Z"/>
      <path class="cls-1" d="M351.8,75.4c-1.52,0-2.92-.27-4.2-.82-1.28-.55-2.32-1.33-3.12-2.34-.8-1.01-1.27-2.2-1.4-3.56h4.28c.19.96.68,1.75,1.48,2.36.8.61,1.79.92,2.96.92,1.09,0,1.97-.23,2.62-.7.65-.47.98-1.09.98-1.86,0-.67-.21-1.19-.64-1.56-.43-.37-.99-.66-1.68-.86-.69-.2-1.44-.39-2.24-.58-1.23-.27-2.38-.61-3.46-1.04-1.08-.43-1.95-1.02-2.62-1.78-.67-.76-1-1.75-1-2.98s.33-2.33,1-3.22c.67-.89,1.57-1.58,2.72-2.06s2.44-.72,3.88-.72c2.16,0,3.96.55,5.4,1.64,1.44,1.09,2.24,2.67,2.4,4.72h-4.08c-.11-.93-.5-1.65-1.18-2.16-.68-.51-1.57-.76-2.66-.76-.96,0-1.75.19-2.36.58-.61.39-.92.98-.92,1.78,0,.53.21.97.64,1.32.43.35.98.64,1.66.88.68.24,1.39.44,2.14.6,1.36.32,2.57.69,3.64,1.12,1.07.43,1.92,1.02,2.56,1.78.64.76.96,1.82.96,3.18.03,1.25-.3,2.34-.98,3.26-.68.92-1.61,1.63-2.78,2.12-1.17.49-2.51.74-4,.74Z"/>
      <path class="cls-1" d="M365.04,51.6c-.8,0-1.47-.27-2.02-.82-.55-.55-.82-1.21-.82-1.98s.27-1.47.82-2c.55-.53,1.22-.8,2.02-.8s1.47.27,2.02.8c.55.53.82,1.2.82,2s-.27,1.43-.82,1.98-1.22.82-2.02.82ZM362.92,74.92v-19.84h4.24v19.84h-4.24Z"/>
      <path class="cls-1" d="M371.16,74.92v-19.84h4.08l.08,2.92c.67-1.09,1.59-1.93,2.78-2.52,1.19-.59,2.45-.88,3.78-.88,2.32,0,4.2.73,5.64,2.18,1.44,1.45,2.16,3.62,2.16,6.5v11.64h-4.24v-11.12c0-1.76-.41-3.13-1.22-4.12-.81-.99-2.01-1.48-3.58-1.48s-2.87.54-3.82,1.62c-.95,1.08-1.42,2.57-1.42,4.46v10.64h-4.24Z"/>
      <path class="cls-1" d="M401.2,84.2c-1.71,0-3.28-.2-4.72-.6-1.44-.4-2.59-1.06-3.46-1.98-.87-.92-1.3-2.13-1.3-3.62,0-1.01.23-1.87.68-2.58.45-.71,1.09-1.27,1.92-1.7-.67-.4-1.19-.89-1.56-1.48-.37-.59-.56-1.25-.56-2,0-1.71.77-3.04,2.32-4-.56-.61-.99-1.31-1.3-2.08-.31-.77-.46-1.6-.46-2.48,0-1.47.34-2.73,1.02-3.78.68-1.05,1.63-1.87,2.84-2.44,1.21-.57,2.59-.86,4.14-.86,1.12,0,2.17.16,3.16.48h6.96v3.36h-2.92c.24.48.43.99.58,1.54.15.55.22,1.11.22,1.7,0,1.44-.35,2.69-1.06,3.74-.71,1.05-1.66,1.87-2.86,2.44-1.2.57-2.56.86-4.08.86-.69,0-1.33-.07-1.92-.2-.59-.13-1.17-.35-1.76-.64-.64.32-.96.83-.96,1.52,0,1.23,1.05,1.84,3.16,1.84h3.48c1.55,0,2.89.21,4.02.62,1.13.41,2.01,1.07,2.64,1.98.63.91.94,2.09.94,3.56s-.42,2.67-1.26,3.68c-.84,1.01-1.95,1.79-3.34,2.32-1.39.53-2.91.8-4.56.8ZM401.16,80.8c1.44,0,2.66-.25,3.66-.76,1-.51,1.5-1.28,1.5-2.32,0-1.92-1.24-2.88-3.72-2.88h-3.12c-1.17,0-2.09.25-2.76.74-.67.49-1,1.21-1,2.14,0,.75.25,1.35.76,1.8.51.45,1.17.78,2,.98.83.2,1.72.3,2.68.3ZM400.68,65.32c1.2,0,2.19-.35,2.96-1.04.77-.69,1.16-1.56,1.16-2.6s-.39-1.95-1.16-2.64c-.77-.69-1.76-1.04-2.96-1.04s-2.13.35-2.86,1.04c-.73.69-1.1,1.57-1.1,2.64s.35,1.91,1.06,2.6c.71.69,1.67,1.04,2.9,1.04Z"/>
      <path class="cls-1" d="M431.48,75.4c-1.92,0-3.63-.44-5.14-1.32-1.51-.88-2.69-2.1-3.54-3.66s-1.28-3.37-1.28-5.42.42-3.82,1.26-5.38c.84-1.56,2.01-2.79,3.5-3.68,1.49-.89,3.23-1.34,5.2-1.34,2.37,0,4.38.61,6.02,1.82,1.64,1.21,2.71,2.93,3.22,5.14h-4.44c-.27-1.01-.83-1.83-1.68-2.44-.85-.61-1.91-.92-3.16-.92s-2.29.31-3.1.94-1.43,1.46-1.84,2.5c-.41,1.04-.62,2.16-.62,3.36,0,1.28.22,2.43.66,3.46.44,1.03,1.07,1.84,1.9,2.44.83.6,1.83.9,3,.9s2.27-.29,3.12-.86c.85-.57,1.43-1.41,1.72-2.5h4.44c-.29,1.41-.87,2.65-1.74,3.7-.87,1.05-1.93,1.86-3.2,2.42s-2.7.84-4.3.84Z"/>
      <path class="cls-1" d="M450.08,75.4c-1.25,0-2.41-.23-3.48-.7-1.07-.47-1.92-1.15-2.56-2.06-.64-.91-.96-2-.96-3.28,0-1.49.38-2.71,1.14-3.64.76-.93,1.79-1.61,3.08-2.04,1.29-.43,2.71-.64,4.26-.64h5.04c0-1.15-.19-2.07-.56-2.78-.37-.71-.89-1.23-1.54-1.58-.65-.35-1.41-.52-2.26-.52-1.09,0-2.06.26-2.9.78-.84.52-1.37,1.35-1.58,2.5h-4.28c.13-1.44.62-2.67,1.46-3.68.84-1.01,1.91-1.79,3.2-2.34,1.29-.55,2.67-.82,4.14-.82,1.95,0,3.55.35,4.8,1.06,1.25.71,2.2,1.69,2.84,2.94s.96,2.69.96,4.32v6.04c.03.77.19,1.34.5,1.7.31.36.85.57,1.62.62v3.64c-1.07,0-1.99-.12-2.76-.36-.77-.24-1.42-.6-1.94-1.08s-.93-1.12-1.22-1.92c-.64,1.09-1.57,2.01-2.8,2.74-1.23.73-2.63,1.1-4.2,1.1ZM451.08,71.92c1.12,0,2.09-.27,2.9-.82.81-.55,1.45-1.26,1.92-2.14.47-.88.7-1.84.7-2.88v-.12h-4.76c-.75,0-1.46.09-2.14.28-.68.19-1.23.5-1.64.94-.41.44-.62,1.05-.62,1.82,0,1.01.36,1.75,1.08,2.22.72.47,1.57.7,2.56.7Z"/>
      <path class="cls-1" d="M465.48,74.92v-19.84h4.08l.12,2.56c.64-.99,1.49-1.74,2.54-2.26,1.05-.52,2.21-.78,3.46-.78,1.52,0,2.89.31,4.1.94,1.21.63,2.15,1.61,2.82,2.94.69-1.23,1.64-2.18,2.84-2.86,1.2-.68,2.51-1.02,3.92-1.02,1.55,0,2.92.31,4.12.94,1.2.63,2.14,1.58,2.82,2.86.68,1.28,1.02,2.89,1.02,4.84v11.68h-4.2v-11.12c0-1.76-.39-3.12-1.16-4.08s-1.92-1.44-3.44-1.44-2.73.53-3.64,1.58c-.91,1.05-1.36,2.53-1.36,4.42v10.64h-4.24v-11.12c0-1.79-.39-3.15-1.18-4.1-.79-.95-1.93-1.42-3.42-1.42-1.36,0-2.53.5-3.5,1.5-.97,1-1.46,2.5-1.46,4.5v10.64h-4.24Z"/>
      <path class="cls-1" d="M500.72,83.72v-28.64h4.08l.16,3c.69-1.01,1.63-1.85,2.8-2.5,1.17-.65,2.56-.98,4.16-.98,1.97,0,3.67.46,5.08,1.38,1.41.92,2.5,2.17,3.26,3.74.76,1.57,1.14,3.32,1.14,5.24s-.39,3.71-1.16,5.3c-.77,1.59-1.87,2.84-3.28,3.76-1.41.92-3.09,1.38-5.04,1.38-1.65,0-3.07-.34-4.26-1.02-1.19-.68-2.09-1.5-2.7-2.46v11.8h-4.24ZM511.04,71.68c1.2,0,2.25-.29,3.16-.88.91-.59,1.62-1.39,2.14-2.4.52-1.01.78-2.16.78-3.44s-.26-2.5-.78-3.5-1.24-1.77-2.16-2.32c-.92-.55-1.97-.82-3.14-.82s-2.21.28-3.12.84c-.91.56-1.62,1.35-2.14,2.36-.52,1.01-.78,2.17-.78,3.48,0,1.23.25,2.35.76,3.38.51,1.03,1.21,1.83,2.1,2.42.89.59,1.95.88,3.18.88Z"/>
      <path class="cls-1" d="M530.76,75.4c-1.25,0-2.41-.23-3.48-.7-1.07-.47-1.92-1.15-2.56-2.06-.64-.91-.96-2-.96-3.28,0-1.49.38-2.71,1.14-3.64.76-.93,1.79-1.61,3.08-2.04,1.29-.43,2.71-.64,4.26-.64h5.04c0-1.15-.19-2.07-.56-2.78-.37-.71-.89-1.23-1.54-1.58-.65-.35-1.41-.52-2.26-.52-1.09,0-2.06.26-2.9.78-.84.52-1.37,1.35-1.58,2.5h-4.28c.13-1.44.62-2.67,1.46-3.68.84-1.01,1.91-1.79,3.2-2.34,1.29-.55,2.67-.82,4.14-.82,1.95,0,3.55.35,4.8,1.06,1.25.71,2.2,1.69,2.84,2.94s.96,2.69.96,4.32v6.04c.03.77.19,1.34.5,1.7.31.36.85.57,1.62.62v3.64c-1.07,0-1.99-.12-2.76-.36-.77-.24-1.42-.6-1.94-1.08s-.93-1.12-1.22-1.92c-.64,1.09-1.57,2.01-2.8,2.74-1.23.73-2.63,1.1-4.2,1.1ZM531.76,71.92c1.12,0,2.09-.27,2.9-.82.81-.55,1.45-1.26,1.92-2.14.47-.88.7-1.84.7-2.88v-.12h-4.76c-.75,0-1.46.09-2.14.28-.68.19-1.23.5-1.64.94-.41.44-.62,1.05-.62,1.82,0,1.01.36,1.75,1.08,2.22.72.47,1.57.7,2.56.7Z"/>
      <path class="cls-1" d="M548.48,51.6c-.8,0-1.47-.27-2.02-.82-.55-.55-.82-1.21-.82-1.98s.27-1.47.82-2c.55-.53,1.22-.8,2.02-.8s1.47.27,2.02.8c.55.53.82,1.2.82,2s-.27,1.43-.82,1.98-1.22.82-2.02.82ZM546.36,74.92v-19.84h4.24v19.84h-4.24Z"/>
      <path class="cls-1" d="M562.84,84.2c-1.71,0-3.28-.2-4.72-.6-1.44-.4-2.59-1.06-3.46-1.98-.87-.92-1.3-2.13-1.3-3.62,0-1.01.23-1.87.68-2.58.45-.71,1.09-1.27,1.92-1.7-.67-.4-1.19-.89-1.56-1.48-.37-.59-.56-1.25-.56-2,0-1.71.77-3.04,2.32-4-.56-.61-.99-1.31-1.3-2.08-.31-.77-.46-1.6-.46-2.48,0-1.47.34-2.73,1.02-3.78.68-1.05,1.63-1.87,2.84-2.44,1.21-.57,2.59-.86,4.14-.86,1.12,0,2.17.16,3.16.48h6.96v3.36h-2.92c.24.48.43.99.58,1.54.15.55.22,1.11.22,1.7,0,1.44-.35,2.69-1.06,3.74-.71,1.05-1.66,1.87-2.86,2.44-1.2.57-2.56.86-4.08.86-.69,0-1.33-.07-1.92-.2-.59-.13-1.17-.35-1.76-.64-.64.32-.96.83-.96,1.52,0,1.23,1.05,1.84,3.16,1.84h3.48c1.55,0,2.89.21,4.02.62,1.13.41,2.01,1.07,2.64,1.98.63.91.94,2.09.94,3.56s-.42,2.67-1.26,3.68c-.84,1.01-1.95,1.79-3.34,2.32-1.39.53-2.91.8-4.56.8ZM562.8,80.8c1.44,0,2.66-.25,3.66-.76,1-.51,1.5-1.28,1.5-2.32,0-1.92-1.24-2.88-3.72-2.88h-3.12c-1.17,0-2.09.25-2.76.74-.67.49-1,1.21-1,2.14,0,.75.25,1.35.76,1.8.51.45,1.17.78,2,.98.83.2,1.72.3,2.68.3ZM562.32,65.32c1.2,0,2.19-.35,2.96-1.04.77-.69,1.16-1.56,1.16-2.6s-.39-1.95-1.16-2.64c-.77-.69-1.76-1.04-2.96-1.04s-2.13.35-2.86,1.04c-.73.69-1.1,1.57-1.1,2.64s.35,1.91,1.06,2.6c.71.69,1.67,1.04,2.9,1.04Z"/>
      <path class="cls-1" d="M574.84,74.92v-19.84h4.08l.08,2.92c.67-1.09,1.59-1.93,2.78-2.52,1.19-.59,2.45-.88,3.78-.88,2.32,0,4.2.73,5.64,2.18,1.44,1.45,2.16,3.62,2.16,6.5v11.64h-4.24v-11.12c0-1.76-.41-3.13-1.22-4.12-.81-.99-2.01-1.48-3.58-1.48s-2.87.54-3.82,1.62c-.95,1.08-1.42,2.57-1.42,4.46v10.64h-4.24Z"/>
      <path class="cls-1" d="M598.68,75.28c-.8,0-1.47-.28-2.02-.84-.55-.56-.82-1.23-.82-2s.27-1.43.82-1.98c.55-.55,1.22-.82,2.02-.82s1.43.27,1.98.82c.55.55.82,1.21.82,1.98s-.27,1.44-.82,2c-.55.56-1.21.84-1.98.84Z"/>
    </g>
    <g id="TQ3p1O">
      <g>
        <g>
          <path class="cls-2" d="M625.11,75.76c-.2,0-.41,0-.61-.02l-.41-.03c-5.92-.46-10.67-5.32-11.04-11.31v-1.41c.02-.11.04-.2.04-.27.46-5.84,5.21-10.59,11.05-11.05.11,0,.17-.01.22-.03h1.45c6,.37,10.86,5.11,11.31,11.03l.03.41c.03.41.03.82,0,1.22l-.03.41c-.45,5.82-5.18,10.55-11,10.99l-.41.03c-.2.02-.41.02-.61.02ZM625.11,53.87c-5.41,0-9.82,4.4-9.82,9.82s4.4,9.82,9.82,9.82,9.82-4.4,9.82-9.82-4.4-9.82-9.82-9.82Z"/>
          <path class="cls-1" d="M625.8,51.76c5.83.37,10.73,4.99,11.19,10.93l.03.41c.03.4.03.8,0,1.2l-.03.41c-.45,5.78-5.1,10.43-10.88,10.88l-.41.03c-.2.02-.4.02-.6.02s-.4,0-.6-.02l-.41-.03c-5.94-.46-10.56-5.36-10.93-11.19v-1.4c.02-.09.03-.18.04-.26.46-5.82,5.11-10.47,10.93-10.93.1,0,.18-.01.26-.04h1.4M625.11,73.63c5.49,0,9.94-4.45,9.94-9.94s-4.45-9.94-9.94-9.94-9.94,4.45-9.94,9.94,4.45,9.94,9.94,9.94M625.81,51.51h-1.46l-.05.02s-.09.02-.15.02c-5.94.47-10.74,5.27-11.2,11.17,0,.07-.02.15-.03.22v.03s0,.03,0,.03v1.4c.38,6.07,5.18,10.98,11.16,11.44l.41.03c.21.02.41.02.62.02s.41,0,.62-.02l.41-.03c5.88-.45,10.66-5.23,11.11-11.11l.03-.41c.03-.41.03-.83,0-1.24l-.03-.41c-.46-5.98-5.37-10.78-11.42-11.16h0ZM625.11,73.38c-5.34,0-9.69-4.35-9.69-9.69s4.35-9.69,9.69-9.69,9.69,4.35,9.69,9.69-4.35,9.69-9.69,9.69h0Z"/>
        </g>
        <g>
          <path class="cls-2" d="M623.11,69.78c-.28,0-.55-.11-.77-.32-.22-.21-.34-.49-.34-.79,0-.3.12-.59.34-.81l4.17-4.17-4.17-4.17c-.44-.44-.45-1.13-.02-1.57.21-.22.5-.34.8-.34s.58.12.8.34l4.96,4.96c.21.21.33.5.33.8,0,.3-.12.58-.33.8l-4.92,4.92c-.24.24-.54.37-.85.37Z"/>
          <path class="cls-1" d="M623.12,57.73c.25,0,.51.1.71.3l4.96,4.96c.4.4.39,1.02,0,1.42l-4.92,4.92c-.22.22-.49.33-.76.33-.24,0-.48-.09-.68-.28-.39-.38-.42-1.01,0-1.42l4.26-4.26-4.26-4.26c-.4-.4-.39-1.01-.02-1.4.19-.2.45-.3.71-.3M623.12,57.48h0c-.33,0-.66.14-.89.38-.48.49-.47,1.26.02,1.75l4.08,4.08-4.08,4.08c-.24.24-.38.56-.37.9,0,.33.14.65.38.88.24.23.54.35.85.35.34,0,.67-.14.94-.41l4.92-4.92c.5-.5.5-1.27,0-1.77l-4.96-4.96c-.24-.24-.55-.37-.89-.37h0Z"/>
        </g>
      </g>
    </g>
  </g>
</svg>