<?xml version="1.0" encoding="UTF-8"?>
<svg id="Layer_2" data-name="Layer 2" xmlns="http://www.w3.org/2000/svg" viewBox="0 0 47.77 33.7">
  <defs>
    <style>
      .cls-1 {
        fill: #fff;
      }
    </style>
  </defs>
  <g id="Layer_1-2" data-name="Layer 1">
    <g id="YCgOiG">
      <path class="cls-1" d="M47.77,28.94c0,2.79-2.13,4.77-4.8,4.77H4.65C2.04,33.7,0,31.59,0,29.01V4.7C0,2.11,2.04,0,4.65,0h38.32c2.67,0,4.79,1.99,4.79,4.7v24.23ZM40.18,3.85H7.58s16.31,12.96,16.31,12.96L40.18,3.85ZM43.93,28.92V5.8s-18.7,14.83-18.7,14.83c-.8.68-1.78.71-2.6.06L3.85,5.8l-.02,23.19c.06.51.3.81.82.88h38.31c.57,0,.96-.28.96-.96Z"/>
    </g>
  </g>
</svg>