<?xml version="1.0" encoding="UTF-8"?>
<svg id="Layer_2" data-name="Layer 2" xmlns="http://www.w3.org/2000/svg" viewBox="0 0 231.94 83.35">
  <defs>
    <style>
      .cls-1 {
        font-family: RedHatDisplay-ExtraBold, 'Red Hat Display';
        font-size: 25.06px;
        font-variation-settings: 'wght' 800;
        font-weight: 700;
      }

      .cls-1, .cls-2 {
        fill: #fff;
      }
    </style>
  </defs>
  <g id="Layer_1-2" data-name="Layer 1">
    <g>
      <text class="cls-1" transform="translate(.44 76.74)"><tspan x="0" y="0">(grid of companies)</tspan></text>
      <g id="uuid-e5b845a0-85c6-4a71-aa3e-0602fecfba35" data-name="Layer 1-2">
        <g id="yNmG6z">
          <path class="cls-2" d="M163.21,24.11c-4.86,7.14-9.75,14.2-14.49,21.4-.26.38-.47.79-.61,1.26-.35.97.2,1.67,1.2,1.58,1.32-.15,2.58-.61,3.78-1.2,2.61-1.32,4.92-3.04,7.2-4.86,1.76-1.41,3.45-2.93,5.15-4.42.2-.2.32-.41.29-.73-.35-2.66-.38-5.33,0-7.99.7-4.89,2.43-9.28,6.32-12.53,2.46-2.05,5.33-3.1,8.49-3.31,3.25-.2,6.38.15,9.31,1.61,3.69,1.87,6.03,4.83,6.91,8.87.73,3.25.76,6.56.61,9.84,0,.5-.06,1-.06,1.49s-.12.53-.56.53h-21.4c-.23,0-.5,0-.5.35-.27,2.01.64,4.74,2.2,6.7,1.58,2.02,3.81,2.84,6.29,2.96,4.54.2,8.49-1.41,11.97-4.19,1.17-.91,2.28-1.9,3.31-2.99.26-.26.35-.53.32-.91-.2-1.87-.35-3.72-.26-5.59.15-4.3.97-8.4,3.28-12.12,2.1-3.36,4.88-5.64,8.63-6.34.01,0,.03,0,.04,0,4.72-.57,8.49.14,11.82,3.15.12.12.2.26.41.32h0c.15-.2.06-.44.06-.64V.7c0-.53,0-.7.67-.7h7.82c.44,0,.53.15.53.56l-.03,51.44c0,.35-.06.5-.5.5h-7.29c-.38,0-1.26.16-1.22-.75,0-1.15.02-2.81,0-4.12h0s0,0,0,0c0-.16-.22-.21-.28-.06-.12.28-.31.61-.53.86-3.02,3.34-6.79,4.57-11.21,4.07-2.63-.29-4.95-1.29-6.91-3.1-1.17-1.11-2.11-2.43-2.84-3.86-.2-.39-.46-.44-.79-.15-1.87,1.64-3.83,3.22-6.03,4.45-2.96,1.67-6.12,2.52-9.48,2.69-3.31.2-6.59-.06-9.72-1.38-3.86-1.64-6.44-4.51-8.11-8.31-.26-.61-.23-.61-.76-.15-3.1,2.78-6.35,5.36-10.04,7.38-1.9,1.05-3.89,1.96-6.06,2.28-2.2.35-4.39.26-6.38-.91-1.05-.61-1.87-1.52-2.28-2.72-.15-.44-.29-.35-.56-.12-1.81,1.49-3.75,2.81-6.03,3.45-2.75.79-5.42.5-7.9-.94-2.66-1.52-3.63-4.16-2.75-7.11.64-2.14,1.81-3.95,3.13-5.65,1.96-2.55,4.24-4.77,6.5-7.03,2.08-2.11,4.24-4.1,6.03-6.44.91-1.17,1.73-2.43,2.11-3.89.12-.53.2-1.02.18-1.58h0c-.15-1.38-.79-1.99-2.2-2.02-1.23-.06-2.34.35-3.43.82-2.75,1.26-5.18,3.02-7.52,4.92-4.33,3.48-8.11,7.46-11.62,11.77-4.6,5.62-8.99,11.39-13.14,17.33-.15.2-.32.32-.61.32h-8.96c-.12,0-.32.06-.35-.09-.06-.15.09-.23.2-.35h0c1.11-1.46,2.1-2.8,3.21-4.23l.17-.21c-.35.31-1.34.93-2.24,1.47h0c-3.58,1.9-7.82,3.35-12.21,3.41-2.34.06-4.65.07-6.85-1.01-.2-.09-.38-.06-.61,0h0c-2.58.91-5.18,1.2-7.9.88-1.55-.2-3.02-.61-4.36-1.43-.35-.2-.61-.18-.94,0-4.3,1.87-8.67,2.25-13.06.35-1.84-.79-3.25-2.11-4.16-3.89-.18-.35-.38-.35-.61-.06-2.11,2.58-4.68,4.36-7.96,4.92-3.72.67-7.26.06-10.36-2.22-.32-.2-.5-.2-.79,0-4.24,2.58-8.78,3.25-13.5,1.73-3.28-1.05-5.15-3.48-6.03-6.76-.5-1.9-.56-3.83-.56-5.8v-17.65q0-.73-.7-.73H.53c-.38,0-.56-.09-.53-.53v-5.57c0-.44.15-.56.56-.56h4.75c.29,0,.52-.23.52-.52V5.45c0-.41.09-.59.53-.59h7.93c.5,0,.61.15.61.61v8.02c0,.5.18.64.64.64,1.55,0,3.1-.01,4.65,0,.68,0,.61.12.61.61,0,1.76-.03,3.7,0,5.43.01.76-.15.61-.61.61h-4.64c-.78,0-.59-.02-.59.68v19.73c.05,2.43.67,4.28,3.24,4.49,1.26.06,2.79-.43,3.75-1.19.24-.19.32-.23.2-.5-1.79-4.22-2.17-8.67-1.9-13.14.2-3.95,1.14-7.7,3.28-11.04,2.31-3.63,5.59-5.88,9.89-6.44,4.5-.43,7.93.67,10.98,4.01.09.09.18.32.35.23.18-.06.12-.26.15-.41.12-.76-.03-1.71.03-2.5h0c.06-.44.2-.59.61-.59h7.33c.29,0,.52.23.52.52v25.05c0,.88.06,1.76.23,2.63.38,1.73,1.41,2.69,3.19,2.87.76.06,1.52-.06,2.25-.2.23-.06.35-.18.29-.44-.76-3.66-.41-7.32-.44-11.01-.06-8.87,0-17.77,0-26.64V.59c0-.29.23-.52.52-.52h8.09c.41,0,.44.2.44.5v39.53c0,1,.06,2.02.41,2.96.47,1.26,1.35,1.96,2.66,2.14.41.06,1.23.07,1.11-.28-.2-.79-.29-1.71-.35-2.56-.12-2.28.26-4.48,1.02-6.59,1.46-3.98,3.3-7.44,6.17-10.57,4.14-4.49,8.09-7.28,13.3-9.66,3.83-1.63,7.58-2.23,9.96-2.14.98.02,2.07,0,4,.62h0c1.39.58,2.98,2.08,3.25,4.56,0,.02,0,.04,0,.06.05,2.51-.8,4.72-2.2,6.76-2.28,3.28-5.33,5.62-8.84,7.41-4.42,2.25-9.16,3.43-14.08,3.81-.94.06-2.13.12-3.06.09-.23,0-.44,0-.59.26-.69,1.01-1.99,3.13-2.21,5.94-.21,2.74,1.14,6.03,4.59,6.55,1.76.31,4.93-.17,8.41-1.7,4.26-1.92,7.41-5.04,10.63-7.87,2.78-2.43,4.95-5.15,7-8.23,2.49-3.72,5.06-7.35,7.29-11.24.35-.61.64-1.2.91-1.87h0c.06-.2.18-.41,0-.59s-.35-.19-.53-.13c-.36.16-1.87.93-3.07,1.62-.02,0-.03.02-.05.03-.29.22-.62.28-.77,0-.32-.56-.52-1.02-1.27-2.2-.2-.26-.15-.41.09-.59,2.28-1.76,4.83-2.96,7.73-3.25,1.11-.09,2.2.06,3.25.5,1.99.76,2.9,2.72,2.52,5.06-.38,2.34-1.52,4.36-2.93,6.21-.12.15-.2.32-.35.47-.06.06-.09.15-.06.29.47-.5.91-1,1.38-1.46,4.01-4.1,8.46-7.64,13.79-9.92,1.49-.64,3.04-1.17,4.68-1.17,2.9-.06,5.42.76,6.97,3.43,1.02,1.84.88,3.75.15,5.65-.88,2.31-2.25,4.36-3.72,6.29-2.17,2.9-4.6,5.62-7,8.34-1.99,2.28-4.04,4.51-5.65,7.06-.5.76-.97,1.58-1.11,2.55-.18,1.02.35,1.64,1.41,1.58,1.93-.12,3.54-1,5.04-2.11,2.37-1.73,4.22-3.95,5.85-6.38,3.98-6,7.96-11.97,11.94-17.97.64-1,1.32-1.99,1.99-2.99h0c.06-.12.22-.34.18-.41-.02-.13-.32-.09-.5-.09h-5.24c-.47,0-.59-.15-.59-.59,0-.94.06-2.03,0-2.97h0c0-.5.09-.67.64-.67,2.66,0,5.33-.02,7.96,0,.91,0,.73-.12,1-.5,2.9-4.1,6.32-8.95,9.21-13.05.32-.44.61-.61,1.17-.59h7.52c.2,0,.32.22.21.38-1.72,2.55-11.35,16.85-16,23.71ZM222.93,24.46c0-.23,0-.5-.15-.67-.87-1.33-2.79-3.16-5.07-3.57-2.63-.47-4.89.15-6.62,2.28-1.05,1.32-1.73,2.84-2.05,4.48-.88,4.33-.82,8.67.15,13,.35,1.67,1.02,3.22,2.4,4.33,2.22,1.84,4.68,1.76,7.23.76,1.81-.7,2.76-2.14,3.87-3.66.2-.29.2-.59.2-.97,0-2.63.03-15.8.03-15.8v-.18ZM44.94,32.37l-.02-7.9c0-.29,0-.53-.2-.76-.9-1.31-2.02-2.14-2.95-2.78-.01,0-.02-.02-.04-.02-2.27-1.33-4.32-1.26-6.68-.48-1.73.7-3.16,2.14-3.95,3.98-.97,2.22-1.26,4.6-1.32,6.97-.09,2.96,0,5.88.76,8.72.47,1.73,1.2,3.34,2.69,4.42,2.22,1.58,4.63,1.46,7,.38,1.7-.76,3.45-2.52,3.97-3.3.74-1.02.71-1.83.71-2.24l.03-6.99M85.62,31.2c1.7-.09,3.49-.41,5.13-.85,4.24-1.17,8.11-3.1,11.24-6.29,1.2-1.23,2.14-2.63,2.61-4.36.32-1.2-.12-2.14-1.17-2.43-.5-.15-1.02-.2-1.58-.12-1.61.2-3.1.85-4.51,1.58-3.45,1.79-6.44,4.22-9.05,7.08-1.38,1.49-2.7,3.16-3.7,4.92-.06.12-.14.3-.08.38.08.16,1.11.09,1.11.09h0ZM189,29.82c.56,0,.59,0,.56-.44-.06-1.46-.12-2.93-.5-4.36-.41-1.55-1.05-2.96-2.34-3.98-1.43-1.14-3.1-1.46-4.89-1.35-2.25.15-3.98,1.17-5.09,3.1-1.14,1.99-1.46,4.19-1.7,6.41-.06.5.12.61.61.61h13.35Z"/>
        </g>
      </g>
    </g>
  </g>
</svg>