<?xml version="1.0" encoding="UTF-8"?>
<svg id="Layer_2" data-name="Layer 2" xmlns="http://www.w3.org/2000/svg" viewBox="0 0 62.36 50.46">
  <defs>
    <style>
      .cls-1 {
        fill: #fff;
      }
    </style>
  </defs>
  <g id="Layer_1-2" data-name="Layer 1">
    <g>
      <path class="cls-1" d="M23.78,36.76c-3.51,4.7-8.37,7.46-13.52,7.72-2.48.12-4.82.06-7.29.01-1.72-.03-2.92-1.81-2.97-3.74s1.07-3.94,2.78-3.96l6.75-.07c4-.04,7.43-2.37,10.06-5.91l14.26-19.22c2.07-2.79,4.77-4.78,7.92-4.79l8.59-.02.05-6.32c.23-.58,1.07-.57,1.46-.16l10.17,9.82c.15.15.32.35.32.5s-.17.41-.3.54l-10.35,9.99c-.43.16-.99.14-1.32-.23l-.03-6.37-8.34.05c-1.25,0-2.33.86-3.14,1.95l-15.08,20.22Z"/>
      <path class="cls-1" d="M41.88,43.69c-3.03,0-5.8-1.81-7.78-4.48l-2.24-3.03,4.33-5.83,2.7,3.61c.84,1.13,1.87,1.81,3.16,1.97h8.32s.04-6.27.04-6.27c.3-.62,1.24-.56,1.64,0l10.02,9.67c.12.11.26.3.3.41.05.14-.11.43-.24.56l-10.32,9.96c-.42.33-1.12.3-1.41-.22l-.03-6.33h-8.47Z"/>
      <path class="cls-1" d="M19.88,20.14c-2.61-3.96-6.25-6.34-10.35-6.38l-6.76-.07C1.12,13.67,0,11.7,0,9.87c0-1.93,1.16-3.86,2.88-3.87l7.47-.03c5.39.39,10.32,3.33,13.88,8.35l-4.35,5.82Z"/>
    </g>
  </g>
</svg>