<?xml version="1.0" encoding="UTF-8"?>
<svg id="Layer_2" data-name="Layer 2" xmlns="http://www.w3.org/2000/svg" viewBox="0 -3 193.03 49.73">
  <defs>
    <style>
      .cls-1 {
        fill: #fff;
      }
    </style>
  </defs>
  <g id="Layer_1-2" data-name="Layer 1">
    <g>
      <g>
        <g>
          <path class="cls-1" d="M179.97,42.73h-15.63c-7.2,0-13.06-5.86-13.06-13.06v-15.63c0-7.2,5.86-13.06,13.06-13.06h15.63c7.2,0,13.06,5.86,13.06,13.06v15.63c0,7.2-5.86,13.06-13.06,13.06ZM164.35,4.79c-5.11,0-9.26,4.16-9.26,9.26v15.63c0,5.11,4.16,9.26,9.26,9.26h15.63c5.11,0,9.26-4.16,9.26-9.26v-15.63c0-5.11-4.16-9.26-9.26-9.26h-15.63Z"/>
          <path class="cls-1" d="M172.16,31.98c-5.58,0-10.12-4.54-10.12-10.12s4.54-10.12,10.12-10.12,10.12,4.54,10.12,10.12-4.54,10.12-10.12,10.12ZM172.16,15.54c-3.49,0-6.32,2.84-6.32,6.32s2.84,6.32,6.32,6.32,6.32-2.84,6.32-6.32-2.84-6.32-6.32-6.32Z"/>
          <circle class="cls-1" cx="182.87" cy="11.15" r="2.49"/>
        </g>
        <path class="cls-1" d="M116.65,3.73h-4.17l-12.6,13.17-9.7-13.53-12.19.38,14.77,20.59-15.33,16.02h4.17l12.94-13.53,9.64,13.45,12.19-.38-14.71-20.51,14.98-15.66ZM108.73,36.12l-2.52.08-8.84-12.33-1.79-2.49-9.94-13.86,2.52-.08,8.89,12.4,1.79,2.49,9.88,13.78Z"/>
        <g transform="translate(0,-3)">
          <rect class="cls-1" x=".43" y="13.81" width="9.24" height="29.92"/>
          <circle class="cls-1" cx="5.05" cy="5.05" r="5.05"/>
          <path class="cls-1" d="M41.14,16.51c-.78-.78-1.71-1.43-2.74-1.89-1.5-.87-3.23-1.36-5.08-1.36-4.06,0-7.56,2.38-9.18,5.82v-5.27h-9.24v29.92h9.24v-16.56c0-2.81,2.1-5.28,4.9-5.5.15-.01.3-.02.45-.02.02,0,.04,0,.07,0,2.82.03,5.04,2.43,5.04,5.25v16.83h9.24v-20.68c0-2.55-1.03-4.87-2.71-6.54Z"/>
        </g>
      </g>
    </g>
  </g>
</svg>