<?xml version="1.0" encoding="UTF-8"?>
<svg id="Layer_2" data-name="Layer 2" xmlns="http://www.w3.org/2000/svg" viewBox="0 0 331.8 41.88">
  <defs>
    <style>
      .cls-1 {
        fill: #f8ff00;
      }
    </style>
  </defs>
  <g id="Layer_1-2" data-name="Layer 1">
    <g>
      <g>
        <path class="cls-1" d="M4.32,15.42V3.97H.53v-1.25h9.11v1.25h-3.79v11.44h-1.52Z"/>
        <path class="cls-1" d="M11.41,15.42V2.72h1.52v5.24c.3-.56.73-.99,1.29-1.3s1.16-.46,1.81-.46c1.04,0,1.87.32,2.5.97.63.65.94,1.64.94,2.98v5.26h-1.51v-5.1c0-.93-.19-1.63-.57-2.1s-.95-.71-1.7-.71c-.79,0-1.45.28-1.98.84-.53.56-.8,1.36-.8,2.4v4.66h-1.52Z"/>
        <path class="cls-1" d="M25.83,15.63c-.83,0-1.59-.19-2.26-.58s-1.2-.93-1.59-1.64c-.39-.71-.58-1.54-.58-2.49s.18-1.77.55-2.48.89-1.26,1.56-1.65c.67-.39,1.45-.59,2.35-.59.85,0,1.58.19,2.21.56.63.38,1.12.88,1.48,1.51.36.63.54,1.34.54,2.13v.4c0,.1,0,.25-.02.45h-7.16c.04.59.18,1.12.43,1.59s.59.83,1.02,1.1c.43.27.92.4,1.48.4.63,0,1.15-.15,1.58-.44s.73-.68.92-1.18h1.51c-.16.56-.42,1.05-.78,1.49s-.81.78-1.35,1.03c-.54.25-1.16.38-1.88.38ZM22.92,10.08h5.66c-.04-.81-.31-1.45-.83-1.9-.52-.46-1.16-.69-1.92-.69s-1.37.22-1.93.66c-.56.44-.89,1.08-.97,1.93Z"/>
        <path class="cls-1" d="M39.9,15.63c-.62,0-1.18-.1-1.69-.31s-.91-.52-1.21-.93c-.3-.42-.44-.93-.44-1.53,0-.7.18-1.26.54-1.68.36-.42.84-.72,1.44-.91s1.24-.28,1.93-.28h2.43c0-.63-.11-1.12-.32-1.49-.21-.36-.49-.62-.82-.78-.34-.16-.71-.24-1.12-.24-.59,0-1.1.14-1.53.43-.43.28-.7.72-.81,1.31h-1.56c.06-.65.28-1.2.65-1.65s.85-.79,1.42-1.02c.57-.24,1.18-.35,1.82-.35.91,0,1.64.17,2.19.5.56.33.96.78,1.22,1.33.25.56.38,1.17.38,1.85v2.76c0,.45.05.79.16,1.02.11.23.39.37.83.42v1.34c-.4,0-.76-.05-1.09-.15-.33-.1-.6-.27-.82-.51-.22-.24-.38-.55-.48-.93-.3.51-.72.94-1.24,1.29-.53.35-1.16.53-1.9.53ZM40.13,14.35c.6,0,1.11-.15,1.52-.46.41-.31.72-.7.93-1.19.21-.48.32-.99.32-1.5v-.02h-2.3c-.42,0-.82.05-1.2.14-.37.09-.68.25-.91.49-.23.24-.34.57-.34.99,0,.54.19.94.58,1.19.39.25.85.37,1.4.37Z"/>
        <path class="cls-1" d="M47.26,15.42V6.42h1.38l.09,1.61c.29-.57.71-1.02,1.25-1.34s1.16-.49,1.85-.49c1.06,0,1.91.32,2.55.97.63.65.95,1.64.95,2.98v5.26h-1.52v-5.1c0-.93-.19-1.63-.58-2.1s-.97-.71-1.74-.71-1.42.28-1.93.84c-.51.56-.77,1.36-.77,2.4v4.66h-1.52Z"/>
        <path class="cls-1" d="M61.1,15.63c-.71,0-1.35-.12-1.92-.37s-1.03-.6-1.37-1.05c-.34-.45-.56-.99-.64-1.61h1.56c.1.47.35.88.75,1.22.41.34.95.52,1.64.52.64,0,1.11-.14,1.42-.41.3-.27.45-.59.45-.97s-.09-.64-.26-.83c-.17-.19-.43-.34-.76-.44-.33-.1-.74-.2-1.22-.3-.51-.11-1-.26-1.49-.44s-.88-.44-1.2-.77c-.31-.33-.47-.76-.47-1.29s.13-1,.4-1.4c.27-.4.64-.71,1.13-.94.49-.23,1.07-.34,1.73-.34.96,0,1.74.24,2.35.72.61.48.96,1.16,1.06,2.04h-1.51c-.06-.46-.26-.82-.59-1.08-.33-.26-.78-.39-1.33-.39s-.96.12-1.26.34-.44.53-.44.91c0,.24.08.45.25.62s.41.31.73.44.7.23,1.13.33c.6.12,1.15.27,1.65.45.5.18.89.44,1.2.79.3.34.45.84.45,1.48.01.53-.12,1.01-.41,1.43s-.68.76-1.2,1c-.51.24-1.13.36-1.84.36Z"/>
        <path class="cls-1" d="M68.19,15.42l-2.63-9h1.52l1.9,7.06,2.1-7.06h1.72l2.12,7.06,1.89-7.06h1.54l-2.63,9h-1.56l-2.21-7.42-2.21,7.42h-1.56Z"/>
        <path class="cls-1" d="M83.75,15.63c-.83,0-1.59-.19-2.26-.58-.67-.39-1.2-.93-1.59-1.64-.39-.71-.58-1.54-.58-2.49s.18-1.77.55-2.48c.37-.71.89-1.26,1.56-1.65.67-.39,1.45-.59,2.35-.59.85,0,1.58.19,2.21.56.63.38,1.12.88,1.48,1.51s.54,1.34.54,2.13v.4c0,.1,0,.25-.02.45h-7.16c.04.59.18,1.12.43,1.59s.59.83,1.02,1.1c.43.27.92.4,1.48.4.63,0,1.15-.15,1.58-.44.42-.29.73-.68.92-1.18h1.51c-.16.56-.42,1.05-.78,1.49-.36.44-.81.78-1.35,1.03-.54.25-1.16.38-1.88.38ZM80.85,10.08h5.66c-.04-.81-.31-1.45-.83-1.9-.52-.46-1.16-.69-1.92-.69s-1.37.22-1.93.66-.89,1.08-.97,1.93Z"/>
        <path class="cls-1" d="M90.03,15.42V6.42h1.38l.13,1.72c.28-.59.7-1.06,1.27-1.42.57-.35,1.27-.53,2.1-.53v1.6h-.42c-.99,0-1.73.27-2.21.8-.48.53-.72,1.29-.72,2.29v4.53h-1.52Z"/>
        <path class="cls-1" d="M104.97,15.42c-.82,0-1.47-.2-1.94-.6-.47-.4-.71-1.12-.71-2.16v-4.95h-1.56v-1.29h1.56v-2.16h1.52v2.16h2.52v1.29h-2.52v4.95c0,.57.11.95.34,1.15.23.2.63.3,1.21.3h.96v1.31h-1.4Z"/>
        <path class="cls-1" d="M112.33,15.63c-.82,0-1.58-.18-2.27-.55-.69-.37-1.24-.91-1.65-1.61-.41-.71-.62-1.56-.62-2.57s.2-1.78.61-2.49c.4-.7.96-1.25,1.65-1.63s1.48-.58,2.35-.58,1.6.18,2.29.54c.7.36,1.25.89,1.68,1.6.42.7.63,1.55.63,2.56,0,.92-.2,1.73-.6,2.45-.4.71-.95,1.27-1.66,1.68-.71.41-1.51.61-2.42.61ZM112.33,14.31c.59,0,1.12-.14,1.6-.43.47-.28.85-.68,1.12-1.19.28-.51.42-1.11.42-1.79s-.12-1.23-.36-1.74c-.24-.51-.59-.91-1.05-1.2-.46-.29-1.02-.44-1.67-.44s-1.22.15-1.68.45c-.45.3-.79.71-1.02,1.21s-.34,1.08-.34,1.71c0,.8.14,1.45.44,1.95.29.5.66.87,1.12,1.11.46.24.94.35,1.43.35Z"/>
        <path class="cls-1" d="M127.99,15.63c-.83,0-1.59-.19-2.26-.58s-1.2-.93-1.59-1.64c-.39-.71-.58-1.54-.58-2.49s.18-1.77.55-2.48.89-1.26,1.56-1.65c.67-.39,1.45-.59,2.35-.59.85,0,1.58.19,2.21.56.63.38,1.12.88,1.48,1.51.36.63.54,1.34.54,2.13v.4c0,.1,0,.25-.02.45h-7.16c.04.59.18,1.12.43,1.59s.59.83,1.02,1.1c.43.27.92.4,1.48.4.63,0,1.15-.15,1.58-.44s.73-.68.92-1.18h1.51c-.16.56-.42,1.05-.78,1.49s-.81.78-1.35,1.03c-.54.25-1.16.38-1.88.38ZM125.08,10.08h5.66c-.04-.81-.31-1.45-.83-1.9-.52-.46-1.16-.69-1.92-.69s-1.37.22-1.93.66c-.56.44-.89,1.08-.97,1.93Z"/>
        <path class="cls-1" d="M136.49,15.42l-3.41-9h1.6l2.7,7.53,2.72-7.53h1.56l-3.41,9h-1.76Z"/>
        <path class="cls-1" d="M146.94,15.63c-.83,0-1.59-.19-2.26-.58-.67-.39-1.2-.93-1.59-1.64-.39-.71-.58-1.54-.58-2.49s.18-1.77.55-2.48c.37-.71.89-1.26,1.56-1.65.67-.39,1.45-.59,2.35-.59.85,0,1.58.19,2.21.56.63.38,1.12.88,1.48,1.51.36.63.54,1.34.54,2.13v.4c0,.1,0,.25-.02.45h-7.16c.04.59.18,1.12.43,1.59.25.47.59.83,1.01,1.1.43.27.92.4,1.48.4.63,0,1.15-.15,1.58-.44.42-.29.73-.68.92-1.18h1.5c-.16.56-.42,1.05-.78,1.49s-.81.78-1.35,1.03c-.54.25-1.16.38-1.88.38ZM144.04,10.08h5.66c-.04-.81-.31-1.45-.83-1.9-.52-.46-1.16-.69-1.92-.69s-1.37.22-1.93.66c-.56.44-.88,1.08-.97,1.93Z"/>
        <path class="cls-1" d="M153.21,15.42V6.42h1.38l.13,1.72c.28-.59.7-1.06,1.27-1.42.57-.35,1.27-.53,2.1-.53v1.6h-.42c-.99,0-1.73.27-2.21.8-.48.53-.72,1.29-.72,2.29v4.53h-1.52Z"/>
        <path class="cls-1" d="M160.78,19.41l1.99-4.35-3.86-8.63h1.65l2.97,7,3.16-7h1.58l-5.89,12.99h-1.6Z"/>
        <path class="cls-1" d="M169.88,15.42V6.42h1.38l.11,1.31c.29-.48.68-.86,1.16-1.12.48-.27,1.03-.4,1.63-.4.71,0,1.33.14,1.84.43s.91.73,1.19,1.32c.31-.54.75-.97,1.3-1.29.55-.31,1.15-.47,1.79-.47.72,0,1.35.14,1.88.43s.93.72,1.22,1.31c.29.59.43,1.33.43,2.22v5.26h-1.5v-5.1c0-.93-.19-1.63-.56-2.1s-.91-.71-1.61-.71-1.33.28-1.8.84c-.48.56-.72,1.36-.72,2.4v4.66h-1.52v-5.1c0-.93-.19-1.63-.56-2.1s-.91-.71-1.61-.71-1.31.28-1.79.84c-.48.56-.72,1.36-.72,2.4v4.66h-1.52Z"/>
        <path class="cls-1" d="M189.1,15.63c-.62,0-1.18-.1-1.69-.31s-.91-.52-1.21-.93c-.3-.42-.44-.93-.44-1.53,0-.7.18-1.26.54-1.68.36-.42.84-.72,1.44-.91.6-.19,1.24-.28,1.93-.28h2.43c0-.63-.11-1.12-.32-1.49-.21-.36-.49-.62-.83-.78s-.71-.24-1.12-.24c-.59,0-1.1.14-1.53.43s-.7.72-.81,1.31h-1.56c.06-.65.28-1.2.65-1.65.37-.45.85-.79,1.42-1.02.57-.24,1.18-.35,1.82-.35.91,0,1.64.17,2.19.5.56.33.96.78,1.22,1.33.25.56.38,1.17.38,1.85v2.76c0,.45.05.79.16,1.02.11.23.39.37.83.42v1.34c-.4,0-.76-.05-1.09-.15s-.6-.27-.83-.51c-.22-.24-.38-.55-.48-.93-.3.51-.72.94-1.24,1.29s-1.16.53-1.9.53ZM189.34,14.35c.6,0,1.11-.15,1.52-.46.41-.31.72-.7.93-1.19.21-.48.32-.99.32-1.5v-.02h-2.3c-.42,0-.82.05-1.2.14-.37.09-.68.25-.91.49-.23.24-.34.57-.34.99,0,.54.19.94.58,1.19.39.25.85.37,1.4.37Z"/>
        <path class="cls-1" d="M196.47,15.42V6.42h1.38l.13,1.72c.28-.59.7-1.06,1.27-1.42.57-.35,1.27-.53,2.1-.53v1.6h-.42c-.99,0-1.73.27-2.21.8-.48.53-.72,1.29-.72,2.29v4.53h-1.52Z"/>
        <path class="cls-1" d="M203.05,15.42V2.72h1.52v7.49l3.68-3.79h1.87l-3.99,4.06,4.5,4.93h-1.94l-4.12-4.66v4.66h-1.52Z"/>
        <path class="cls-1" d="M215.58,15.63c-.83,0-1.59-.19-2.26-.58-.67-.39-1.2-.93-1.59-1.64-.39-.71-.58-1.54-.58-2.49s.18-1.77.55-2.48c.37-.71.89-1.26,1.56-1.65.67-.39,1.45-.59,2.35-.59.85,0,1.58.19,2.21.56.63.38,1.12.88,1.48,1.51.36.63.54,1.34.54,2.13v.4c0,.1,0,.25-.02.45h-7.16c.04.59.18,1.12.43,1.59.25.47.59.83,1.01,1.1.43.27.92.4,1.48.4.63,0,1.15-.15,1.58-.44.42-.29.73-.68.92-1.18h1.5c-.16.56-.42,1.05-.78,1.49s-.81.78-1.35,1.03c-.54.25-1.16.38-1.88.38ZM212.68,10.08h5.66c-.04-.81-.31-1.45-.83-1.9-.52-.46-1.16-.69-1.92-.69s-1.37.22-1.93.66c-.56.44-.88,1.08-.97,1.93Z"/>
        <path class="cls-1" d="M225.1,15.42c-.82,0-1.47-.2-1.94-.6-.47-.4-.71-1.12-.71-2.16v-4.95h-1.56v-1.29h1.56v-2.16h1.52v2.16h2.52v1.29h-2.52v4.95c0,.57.12.95.35,1.15.23.2.63.3,1.21.3h.96v1.31h-1.4Z"/>
        <path class="cls-1" d="M229.49,4.43c-.3,0-.55-.1-.75-.3-.2-.2-.3-.45-.3-.75s.1-.53.3-.72c.2-.19.45-.29.75-.29s.54.1.74.29c.21.19.31.43.31.72s-.1.55-.31.75c-.21.2-.45.3-.74.3ZM228.73,15.42V6.42h1.52v9h-1.52Z"/>
        <path class="cls-1" d="M232.9,15.42V6.42h1.38l.09,1.61c.29-.57.71-1.02,1.25-1.34s1.16-.49,1.85-.49c1.06,0,1.91.32,2.55.97.63.65.95,1.64.95,2.98v5.26h-1.52v-5.1c0-.93-.19-1.63-.58-2.1-.39-.47-.97-.71-1.74-.71s-1.42.28-1.93.84c-.51.56-.77,1.36-.77,2.4v4.66h-1.52Z"/>
        <path class="cls-1" d="M246.87,19.62c-.71,0-1.4-.09-2.05-.27-.65-.18-1.18-.49-1.59-.92-.41-.43-.61-1-.61-1.71,0-.5.12-.91.34-1.23.23-.33.53-.57.91-.74-.29-.17-.53-.38-.71-.63-.18-.25-.27-.54-.27-.87,0-.73.33-1.31.98-1.76-.24-.28-.43-.59-.57-.93-.14-.34-.21-.73-.21-1.15,0-.67.15-1.24.46-1.71s.73-.84,1.27-1.1,1.15-.38,1.84-.38c.51,0,.99.07,1.43.22h3.07v1.29h-1.4c.16.24.27.5.35.79s.12.58.12.9c0,.69-.16,1.27-.48,1.74s-.75.83-1.29,1.08-1.14.37-1.8.37c-.34,0-.65-.04-.92-.11-.28-.07-.56-.17-.83-.31-.31.16-.47.4-.47.72,0,.61.51.91,1.52.91h1.5c.68,0,1.28.09,1.8.26.52.18.93.46,1.22.85.3.39.45.93.45,1.61s-.19,1.26-.58,1.72c-.39.46-.89.8-1.5,1.03-.62.23-1.28.34-1.98.34ZM246.83,18.35c.73,0,1.34-.14,1.85-.41.51-.27.76-.69.76-1.24,0-1.04-.63-1.56-1.89-1.56h-1.54c-.59,0-1.06.13-1.4.39-.34.26-.51.65-.51,1.17,0,.4.13.72.38.96.25.24.59.42,1,.53.41.11.86.16,1.34.16ZM246.63,11.32c.63,0,1.14-.18,1.54-.54.4-.36.6-.82.6-1.38s-.2-1.02-.6-1.38c-.4-.36-.91-.54-1.54-.54s-1.13.18-1.51.54c-.38.36-.57.82-.57,1.38s.18,1.02.55,1.38c.37.36.88.54,1.53.54Z"/>
        <path class="cls-1" d="M257.69,19.41V6.42h1.38l.14,1.49c.29-.43.71-.83,1.24-1.18.54-.35,1.22-.53,2.06-.53.91,0,1.69.21,2.36.62.67.41,1.18.97,1.54,1.69.36.71.54,1.52.54,2.43s-.18,1.7-.54,2.41c-.36.71-.88,1.27-1.55,1.68-.67.41-1.46.61-2.37.61-.74,0-1.39-.15-1.97-.45-.58-.3-1.01-.73-1.32-1.27v5.5h-1.52ZM262.34,14.31c.62,0,1.16-.14,1.62-.43.46-.28.82-.68,1.08-1.2s.39-1.1.39-1.77-.12-1.22-.37-1.73c-.25-.51-.6-.92-1.06-1.22-.46-.3-1.01-.44-1.65-.44-.6,0-1.14.14-1.6.43s-.83.68-1.09,1.19c-.26.51-.39,1.1-.39,1.78,0,.63.13,1.2.38,1.71s.61.92,1.07,1.22c.46.3,1,.45,1.63.45Z"/>
        <path class="cls-1" d="M269.08,15.42V6.42h1.38l.13,1.72c.28-.59.7-1.06,1.27-1.42.57-.35,1.27-.53,2.1-.53v1.6h-.42c-.99,0-1.73.27-2.21.8-.48.53-.72,1.29-.72,2.29v4.53h-1.52Z"/>
        <path class="cls-1" d="M279.47,15.63c-.82,0-1.58-.18-2.27-.55-.69-.37-1.24-.91-1.65-1.61-.41-.71-.62-1.56-.62-2.57s.2-1.78.61-2.49c.4-.7.96-1.25,1.65-1.63s1.48-.58,2.35-.58,1.6.18,2.29.54c.7.36,1.25.89,1.68,1.6s.63,1.55.63,2.56c0,.92-.2,1.73-.6,2.45-.4.71-.95,1.27-1.66,1.68-.71.41-1.51.61-2.42.61ZM279.47,14.31c.59,0,1.12-.14,1.6-.43.47-.28.85-.68,1.12-1.19.28-.51.42-1.11.42-1.79s-.12-1.23-.36-1.74-.59-.91-1.05-1.2-1.02-.44-1.67-.44-1.22.15-1.68.45c-.45.3-.79.71-1.02,1.21-.23.51-.35,1.08-.35,1.71,0,.8.15,1.45.44,1.95.29.5.67.87,1.12,1.11.46.24.94.35,1.43.35Z"/>
        <path class="cls-1" d="M291.08,15.63c-.74,0-1.39-.15-1.97-.45-.58-.3-1.01-.73-1.32-1.27l-.15,1.51h-1.38V2.72h1.52v5.19c.29-.43.7-.83,1.24-1.18s1.22-.53,2.06-.53c.91,0,1.69.21,2.36.62s1.18.97,1.54,1.69c.36.71.54,1.52.54,2.43s-.18,1.7-.54,2.41c-.36.71-.88,1.27-1.55,1.68-.67.41-1.46.61-2.37.61ZM290.92,14.31c.62,0,1.16-.14,1.61-.43.46-.28.82-.68,1.08-1.2.26-.51.39-1.1.39-1.77s-.12-1.22-.37-1.73c-.25-.51-.6-.92-1.06-1.22-.46-.3-1.01-.44-1.65-.44-.6,0-1.14.14-1.6.43-.47.28-.83.68-1.09,1.19-.26.51-.39,1.1-.39,1.78,0,.63.13,1.2.38,1.71s.61.92,1.07,1.22c.46.3,1,.45,1.63.45Z"/>
        <path class="cls-1" d="M297.67,15.42V2.72h1.52v12.7h-1.52Z"/>
        <path class="cls-1" d="M305.74,15.63c-.83,0-1.59-.19-2.26-.58-.67-.39-1.2-.93-1.59-1.64-.39-.71-.58-1.54-.58-2.49s.18-1.77.55-2.48c.37-.71.89-1.26,1.56-1.65.67-.39,1.45-.59,2.35-.59.85,0,1.58.19,2.21.56.63.38,1.12.88,1.48,1.51s.54,1.34.54,2.13v.4c0,.1,0,.25-.02.45h-7.16c.04.59.18,1.12.43,1.59s.59.83,1.02,1.1c.43.27.92.4,1.48.4.63,0,1.15-.15,1.58-.44.42-.29.73-.68.92-1.18h1.51c-.16.56-.42,1.05-.78,1.49-.36.44-.81.78-1.35,1.03-.54.25-1.16.38-1.88.38ZM302.83,10.08h5.66c-.04-.81-.31-1.45-.83-1.9-.52-.46-1.16-.69-1.92-.69s-1.37.22-1.93.66-.89,1.08-.97,1.93Z"/>
        <path class="cls-1" d="M312.01,15.42V6.42h1.38l.11,1.31c.29-.48.68-.86,1.16-1.12.48-.27,1.03-.4,1.63-.4.71,0,1.33.14,1.84.43.51.29.91.73,1.19,1.32.31-.54.75-.97,1.3-1.29.55-.31,1.14-.47,1.79-.47.73,0,1.35.14,1.88.43s.93.72,1.22,1.31c.29.59.44,1.33.44,2.22v5.26h-1.51v-5.1c0-.93-.19-1.63-.56-2.1-.38-.47-.91-.71-1.61-.71s-1.33.28-1.8.84c-.48.56-.72,1.36-.72,2.4v4.66h-1.52v-5.1c0-.93-.19-1.63-.56-2.1-.38-.47-.91-.71-1.61-.71s-1.31.28-1.79.84c-.48.56-.72,1.36-.72,2.4v4.66h-1.52Z"/>
        <path class="cls-1" d="M38.37,26.19c-.3,0-.55-.1-.75-.3s-.3-.45-.3-.75.1-.53.3-.73c.2-.19.45-.29.75-.29s.54.1.74.29.31.44.31.73-.1.55-.31.75c-.21.2-.45.3-.74.3ZM37.61,37.18v-9h1.52v9h-1.52Z"/>
        <path class="cls-1" d="M45.22,37.4c-.71,0-1.36-.12-1.92-.37-.57-.25-1.02-.6-1.37-1.05-.34-.45-.56-.99-.64-1.6h1.56c.1.47.35.88.75,1.22.4.34.95.52,1.64.52.64,0,1.11-.14,1.41-.41.3-.27.45-.6.45-.97s-.09-.64-.26-.83c-.18-.19-.43-.34-.76-.44-.33-.1-.74-.2-1.22-.3-.51-.11-1-.26-1.49-.44-.48-.19-.88-.44-1.2-.77s-.47-.75-.47-1.29.13-1,.4-1.4c.27-.4.64-.71,1.13-.94s1.07-.34,1.73-.34c.96,0,1.74.24,2.35.72.61.48.96,1.16,1.06,2.04h-1.5c-.06-.46-.26-.82-.59-1.08-.33-.26-.78-.39-1.33-.39s-.96.11-1.26.34c-.3.23-.44.53-.44.91,0,.24.08.45.25.62.17.17.41.32.74.44.32.12.7.23,1.13.33.6.12,1.15.27,1.65.45.5.18.89.44,1.2.79.3.34.45.84.45,1.48.01.53-.12,1.01-.41,1.43-.28.42-.68.76-1.2,1-.51.24-1.13.36-1.84.36Z"/>
        <path class="cls-1" d="M50.84,37.18v-9h1.38l.09,1.61c.29-.57.71-1.02,1.25-1.34.54-.33,1.16-.49,1.85-.49,1.06,0,1.91.32,2.55.97.63.65.95,1.64.95,2.98v5.26h-1.52v-5.1c0-.93-.19-1.63-.58-2.1-.39-.47-.97-.71-1.74-.71s-1.42.28-1.93.84c-.51.56-.77,1.36-.77,2.4v4.66h-1.52Z"/>
        <path class="cls-1" d="M60.58,28.53l1.05-4.04h1.71l-1.67,4.04h-1.09Z"/>
        <path class="cls-1" d="M68.65,37.18c-.82,0-1.47-.2-1.94-.6-.47-.4-.71-1.12-.71-2.16v-4.95h-1.56v-1.29h1.56v-2.16h1.52v2.16h2.52v1.29h-2.52v4.95c0,.57.12.95.34,1.15.23.2.63.3,1.21.3h.96v1.31h-1.4Z"/>
        <path class="cls-1" d="M79.92,37.4c-.62,0-1.18-.1-1.69-.31-.51-.21-.91-.52-1.21-.93s-.44-.93-.44-1.53c0-.7.18-1.26.54-1.68.36-.42.84-.72,1.44-.91.6-.19,1.24-.28,1.93-.28h2.43c0-.63-.11-1.12-.32-1.49-.21-.36-.49-.62-.83-.78s-.71-.24-1.12-.24c-.59,0-1.1.14-1.53.43s-.7.72-.81,1.31h-1.56c.06-.65.28-1.2.65-1.65.37-.45.85-.79,1.42-1.02.57-.24,1.18-.35,1.82-.35.91,0,1.64.17,2.19.5.56.33.96.78,1.22,1.33.25.56.38,1.17.38,1.85v2.76c0,.45.05.79.16,1.02s.39.37.83.42v1.34c-.4,0-.76-.05-1.09-.15-.33-.1-.6-.27-.83-.51-.22-.24-.38-.55-.48-.93-.3.51-.72.94-1.24,1.29-.53.35-1.16.53-1.9.53ZM80.15,36.11c.6,0,1.11-.15,1.52-.46.41-.31.72-.7.93-1.19.21-.48.32-.99.32-1.51v-.02h-2.3c-.42,0-.82.04-1.2.14-.37.09-.68.25-.91.49-.23.24-.34.57-.34.99,0,.54.19.94.58,1.19.39.25.85.37,1.4.37Z"/>
        <path class="cls-1" d="M87.28,37.18v-9h1.38l.09,1.61c.29-.57.71-1.02,1.25-1.34.54-.33,1.16-.49,1.85-.49,1.06,0,1.91.32,2.55.97.63.65.95,1.64.95,2.98v5.26h-1.52v-5.1c0-.93-.19-1.63-.58-2.1-.39-.47-.97-.71-1.74-.71s-1.42.28-1.93.84c-.51.56-.77,1.36-.77,2.4v4.66h-1.52Z"/>
        <path class="cls-1" d="M105.47,37.4c-.62,0-1.18-.1-1.69-.31-.51-.21-.91-.52-1.21-.93s-.44-.93-.44-1.53c0-.7.18-1.26.54-1.68s.84-.72,1.44-.91c.6-.19,1.24-.28,1.93-.28h2.43c0-.63-.11-1.12-.32-1.49-.21-.36-.49-.62-.83-.78-.34-.16-.71-.24-1.12-.24-.59,0-1.1.14-1.53.43-.43.28-.7.72-.81,1.31h-1.56c.06-.65.28-1.2.65-1.65.38-.45.85-.79,1.42-1.02.57-.24,1.18-.35,1.82-.35.91,0,1.64.17,2.2.5.56.33.96.78,1.21,1.33.25.56.38,1.17.38,1.85v2.76c0,.45.05.79.16,1.02s.39.37.83.42v1.34c-.4,0-.76-.05-1.09-.15-.33-.1-.6-.27-.83-.51-.22-.24-.38-.55-.48-.93-.3.51-.72.94-1.24,1.29-.53.35-1.16.53-1.9.53ZM105.71,36.11c.61,0,1.11-.15,1.52-.46.41-.31.72-.7.93-1.19s.32-.99.32-1.51v-.02h-2.3c-.42,0-.82.04-1.2.14s-.68.25-.91.49c-.23.24-.34.57-.34.99,0,.54.19.94.58,1.19s.85.37,1.4.37Z"/>
        <path class="cls-1" d="M116.7,37.4c-.92,0-1.71-.21-2.38-.63-.67-.42-1.18-.99-1.54-1.71-.36-.71-.54-1.51-.54-2.39s.18-1.66.54-2.38c.36-.71.87-1.28,1.53-1.7s1.47-.63,2.41-.63c.74,0,1.39.15,1.96.45.57.3,1.01.73,1.32,1.27v-5.21h1.52v12.7h-1.38l-.15-1.49c-.29.44-.71.83-1.25,1.18-.54.35-1.23.53-2.05.53ZM116.86,36.07c.66,0,1.23-.15,1.69-.46.46-.31.81-.72,1.04-1.23.24-.51.35-1.08.35-1.7,0-.65-.12-1.23-.36-1.74-.24-.51-.59-.91-1.05-1.21s-1.02-.44-1.67-.44c-.58,0-1.1.14-1.56.42-.46.28-.82.67-1.1,1.17s-.41,1.1-.41,1.8.14,1.31.42,1.81.65.9,1.12,1.17c.47.27.98.41,1.53.41Z"/>
        <path class="cls-1" d="M126.6,37.18l-3.41-9h1.6l2.7,7.53,2.72-7.53h1.56l-3.41,9h-1.76Z"/>
        <path class="cls-1" d="M137.04,37.4c-.83,0-1.59-.19-2.26-.58-.67-.39-1.2-.93-1.59-1.64-.39-.71-.58-1.54-.58-2.49s.18-1.77.55-2.48c.37-.71.89-1.26,1.56-1.65.67-.39,1.45-.59,2.35-.59.85,0,1.58.19,2.21.56s1.12.88,1.48,1.51.54,1.35.54,2.13v.4c0,.1,0,.25-.02.45h-7.16c.04.59.18,1.12.43,1.59.25.47.59.83,1.02,1.1s.92.4,1.48.4c.63,0,1.15-.15,1.58-.44.42-.29.73-.68.92-1.18h1.51c-.16.56-.42,1.05-.78,1.49-.36.43-.81.78-1.35,1.03-.54.25-1.16.38-1.88.38ZM134.14,31.85h5.66c-.04-.81-.31-1.44-.83-1.9-.52-.46-1.16-.69-1.92-.69s-1.37.22-1.93.66c-.56.44-.89,1.09-.97,1.93Z"/>
        <path class="cls-1" d="M143.32,37.18v-9h1.38l.13,1.72c.28-.59.7-1.06,1.27-1.41.57-.35,1.27-.53,2.1-.53v1.6h-.42c-.99,0-1.73.27-2.21.8-.48.53-.72,1.29-.72,2.29v4.53h-1.52Z"/>
        <path class="cls-1" d="M153.46,37.18c-.82,0-1.47-.2-1.94-.6-.47-.4-.71-1.12-.71-2.16v-4.95h-1.56v-1.29h1.56v-2.16h1.52v2.16h2.52v1.29h-2.52v4.95c0,.57.11.95.34,1.15.23.2.63.3,1.21.3h.96v1.31h-1.4Z"/>
        <path class="cls-1" d="M157.85,26.19c-.3,0-.55-.1-.75-.3-.2-.2-.3-.45-.3-.75s.1-.53.3-.73.45-.29.75-.29.54.1.74.29.31.44.31.73-.1.55-.31.75c-.21.2-.45.3-.74.3ZM157.08,37.18v-9h1.52v9h-1.52Z"/>
        <path class="cls-1" d="M164.7,37.4c-.71,0-1.35-.12-1.92-.37-.57-.25-1.02-.6-1.37-1.05-.34-.45-.56-.99-.64-1.6h1.56c.1.47.35.88.75,1.22s.95.52,1.64.52c.64,0,1.11-.14,1.41-.41.3-.27.45-.6.45-.97s-.09-.64-.26-.83-.43-.34-.76-.44-.74-.2-1.22-.3c-.51-.11-1-.26-1.49-.44-.48-.19-.88-.44-1.2-.77s-.47-.75-.47-1.29.13-1,.4-1.4c.27-.4.64-.71,1.13-.94.49-.23,1.07-.34,1.73-.34.96,0,1.74.24,2.35.72.61.48.96,1.16,1.06,2.04h-1.5c-.06-.46-.26-.82-.59-1.08-.33-.26-.78-.39-1.33-.39s-.96.11-1.26.34c-.3.23-.45.53-.45.91,0,.24.08.45.25.62s.41.32.74.44c.32.12.7.23,1.13.33.6.12,1.15.27,1.65.45.5.18.89.44,1.2.79.3.34.45.84.45,1.48.01.53-.12,1.01-.41,1.43-.29.42-.68.76-1.2,1-.51.24-1.13.36-1.84.36Z"/>
        <path class="cls-1" d="M171.25,26.19c-.3,0-.55-.1-.75-.3-.2-.2-.3-.45-.3-.75s.1-.53.3-.73.45-.29.75-.29.54.1.74.29c.21.19.31.44.31.73s-.1.55-.31.75c-.21.2-.45.3-.74.3ZM170.49,37.18v-9h1.52v9h-1.52Z"/>
        <path class="cls-1" d="M174.66,37.18v-9h1.38l.09,1.61c.29-.57.71-1.02,1.25-1.34.54-.33,1.16-.49,1.85-.49,1.06,0,1.91.32,2.55.97.63.65.95,1.64.95,2.98v5.26h-1.52v-5.1c0-.93-.19-1.63-.58-2.1-.39-.47-.97-.71-1.74-.71s-1.42.28-1.93.84c-.51.56-.77,1.36-.77,2.4v4.66h-1.52Z"/>
        <path class="cls-1" d="M188.62,41.39c-.71,0-1.4-.09-2.05-.27-.65-.18-1.18-.49-1.59-.92-.4-.43-.61-1-.61-1.71,0-.5.12-.91.34-1.23.23-.33.53-.57.91-.74-.29-.17-.53-.38-.71-.63-.18-.25-.27-.54-.27-.87,0-.73.33-1.31.98-1.76-.24-.28-.43-.59-.57-.93-.14-.34-.21-.73-.21-1.15,0-.67.15-1.24.46-1.71.31-.48.73-.84,1.27-1.1.54-.25,1.15-.38,1.84-.38.51,0,.98.07,1.43.22h3.07v1.29h-1.4c.16.24.27.51.35.79.08.28.12.58.12.9,0,.69-.16,1.27-.48,1.74-.32.47-.75.83-1.29,1.08-.54.25-1.14.37-1.8.37-.34,0-.65-.04-.93-.11-.28-.07-.56-.18-.83-.31-.31.16-.47.4-.47.73,0,.6.51.91,1.52.91h1.5c.68,0,1.28.09,1.8.26.52.17.93.46,1.22.85.3.39.44.93.44,1.6s-.19,1.26-.58,1.72c-.39.46-.89.8-1.51,1.03-.62.23-1.28.34-1.98.34ZM188.59,40.12c.73,0,1.34-.14,1.85-.41s.76-.69.76-1.24c0-1.04-.63-1.56-1.89-1.56h-1.54c-.59,0-1.06.13-1.4.39s-.51.65-.51,1.17c0,.4.13.72.38.96s.59.42,1,.53c.41.11.86.16,1.34.16ZM188.39,33.08c.63,0,1.14-.18,1.54-.54s.6-.82.6-1.38-.2-1.02-.6-1.38c-.4-.36-.91-.54-1.54-.54s-1.13.18-1.51.54c-.38.36-.57.82-.57,1.38s.18,1.02.55,1.38c.37.36.88.54,1.53.54Z"/>
        <path class="cls-1" d="M203.59,37.4c-.85,0-1.61-.19-2.29-.58-.68-.39-1.22-.93-1.62-1.64-.4-.71-.6-1.54-.6-2.49s.19-1.75.58-2.46.92-1.26,1.6-1.66c.68-.4,1.46-.6,2.34-.6,1.06,0,1.96.28,2.69.83.73.56,1.19,1.3,1.39,2.23h-1.56c-.12-.56-.42-.99-.89-1.3-.47-.31-1.02-.46-1.65-.46s-1.18.16-1.61.47-.76.73-.99,1.25c-.22.52-.34,1.08-.34,1.69,0,.67.13,1.26.38,1.78.25.52.6.92,1.04,1.21s.95.44,1.51.44c.63,0,1.18-.15,1.65-.46s.77-.75.89-1.31h1.56c-.12.6-.37,1.14-.74,1.6-.38.46-.85.82-1.42,1.08s-1.21.39-1.92.39Z"/>
        <path class="cls-1" d="M212.78,37.4c-.62,0-1.18-.1-1.69-.31-.51-.21-.91-.52-1.21-.93s-.44-.93-.44-1.53c0-.7.18-1.26.54-1.68s.84-.72,1.44-.91c.6-.19,1.24-.28,1.93-.28h2.43c0-.63-.11-1.12-.32-1.49-.21-.36-.49-.62-.83-.78-.34-.16-.71-.24-1.12-.24-.59,0-1.1.14-1.53.43-.43.28-.7.72-.81,1.31h-1.56c.06-.65.28-1.2.65-1.65.38-.45.85-.79,1.42-1.02.57-.24,1.18-.35,1.82-.35.91,0,1.64.17,2.2.5.56.33.96.78,1.21,1.33.25.56.38,1.17.38,1.85v2.76c0,.45.05.79.16,1.02s.39.37.83.42v1.34c-.4,0-.76-.05-1.09-.15-.33-.1-.6-.27-.83-.51-.22-.24-.38-.55-.48-.93-.3.51-.72.94-1.24,1.29-.53.35-1.16.53-1.9.53ZM213.02,36.11c.61,0,1.11-.15,1.52-.46.41-.31.72-.7.93-1.19s.32-.99.32-1.51v-.02h-2.3c-.42,0-.82.04-1.2.14s-.68.25-.91.49c-.23.24-.34.57-.34.99,0,.54.19.94.58,1.19s.85.37,1.4.37Z"/>
        <path class="cls-1" d="M220.14,37.18v-9h1.38l.11,1.31c.29-.48.68-.86,1.16-1.12.48-.27,1.03-.4,1.63-.4.71,0,1.33.15,1.84.44.51.29.91.73,1.19,1.32.31-.54.75-.97,1.3-1.29s1.15-.47,1.79-.47c.73,0,1.35.14,1.88.43.53.29.93.72,1.22,1.31.29.59.44,1.33.44,2.22v5.26h-1.51v-5.1c0-.93-.19-1.63-.56-2.1-.38-.47-.91-.71-1.61-.71s-1.33.28-1.8.84c-.48.56-.72,1.36-.72,2.4v4.66h-1.52v-5.1c0-.93-.19-1.63-.56-2.1-.38-.47-.91-.71-1.61-.71s-1.31.28-1.79.84c-.48.56-.72,1.36-.72,2.4v4.66h-1.52Z"/>
        <path class="cls-1" d="M236.38,41.17v-12.99h1.38l.14,1.49c.29-.44.71-.83,1.24-1.18.54-.35,1.22-.53,2.06-.53.91,0,1.69.21,2.36.62.67.41,1.18.97,1.54,1.69.36.71.54,1.52.54,2.43s-.18,1.7-.54,2.41c-.36.71-.88,1.27-1.55,1.68-.67.41-1.46.61-2.37.61-.74,0-1.39-.15-1.97-.45-.58-.3-1.01-.73-1.32-1.27v5.5h-1.52ZM241.02,36.07c.62,0,1.16-.14,1.62-.43.46-.28.82-.68,1.08-1.2.26-.51.39-1.1.39-1.77s-.12-1.22-.37-1.73c-.25-.51-.6-.92-1.06-1.21-.46-.3-1.01-.44-1.65-.44-.6,0-1.14.14-1.6.43s-.83.68-1.09,1.19c-.26.51-.39,1.1-.39,1.78,0,.63.13,1.2.38,1.71.25.51.61.92,1.07,1.22.46.3,1,.45,1.63.45Z"/>
        <path class="cls-1" d="M250.76,37.4c-.62,0-1.18-.1-1.69-.31-.51-.21-.91-.52-1.21-.93s-.44-.93-.44-1.53c0-.7.18-1.26.54-1.68s.84-.72,1.44-.91c.6-.19,1.24-.28,1.93-.28h2.43c0-.63-.11-1.12-.32-1.49-.21-.36-.49-.62-.83-.78-.34-.16-.71-.24-1.12-.24-.59,0-1.1.14-1.53.43-.43.28-.7.72-.81,1.31h-1.56c.06-.65.28-1.2.65-1.65.38-.45.85-.79,1.42-1.02.57-.24,1.18-.35,1.82-.35.91,0,1.64.17,2.2.5.56.33.96.78,1.21,1.33.25.56.38,1.17.38,1.85v2.76c0,.45.05.79.16,1.02s.39.37.83.42v1.34c-.4,0-.76-.05-1.09-.15-.33-.1-.6-.27-.83-.51-.22-.24-.38-.55-.48-.93-.3.51-.72.94-1.24,1.29-.53.35-1.16.53-1.9.53ZM250.99,36.11c.61,0,1.11-.15,1.52-.46.41-.31.72-.7.93-1.19s.32-.99.32-1.51v-.02h-2.3c-.42,0-.82.04-1.2.14s-.68.25-.91.49c-.23.24-.34.57-.34.99,0,.54.19.94.58,1.19s.85.37,1.4.37Z"/>
        <path class="cls-1" d="M259.04,26.19c-.3,0-.55-.1-.75-.3s-.3-.45-.3-.75.1-.53.3-.73c.2-.19.45-.29.75-.29s.54.1.74.29c.21.19.31.44.31.73s-.1.55-.31.75c-.21.2-.45.3-.74.3ZM258.28,37.18v-9h1.52v9h-1.52Z"/>
        <path class="cls-1" d="M266.03,41.39c-.71,0-1.4-.09-2.05-.27-.65-.18-1.18-.49-1.59-.92-.4-.43-.61-1-.61-1.71,0-.5.12-.91.34-1.23.23-.33.53-.57.91-.74-.29-.17-.53-.38-.71-.63-.18-.25-.27-.54-.27-.87,0-.73.33-1.31.98-1.76-.24-.28-.43-.59-.57-.93-.14-.34-.21-.73-.21-1.15,0-.67.15-1.24.46-1.71.31-.48.73-.84,1.27-1.1.54-.25,1.15-.38,1.84-.38.51,0,.98.07,1.43.22h3.07v1.29h-1.4c.16.24.27.51.35.79.08.28.12.58.12.9,0,.69-.16,1.27-.48,1.74-.32.47-.75.83-1.29,1.08-.54.25-1.14.37-1.8.37-.34,0-.65-.04-.93-.11-.28-.07-.56-.18-.83-.31-.31.16-.47.4-.47.73,0,.6.51.91,1.52.91h1.5c.68,0,1.28.09,1.8.26.52.17.93.46,1.22.85.3.39.44.93.44,1.6s-.19,1.26-.58,1.72c-.39.46-.89.8-1.51,1.03-.62.23-1.28.34-1.98.34ZM265.99,40.12c.73,0,1.34-.14,1.85-.41s.76-.69.76-1.24c0-1.04-.63-1.56-1.89-1.56h-1.54c-.59,0-1.06.13-1.4.39s-.51.65-.51,1.17c0,.4.13.72.38.96s.59.42,1,.53c.41.11.86.16,1.34.16ZM265.79,33.08c.63,0,1.14-.18,1.54-.54s.6-.82.6-1.38-.2-1.02-.6-1.38c-.4-.36-.91-.54-1.54-.54s-1.13.18-1.51.54c-.38.36-.57.82-.57,1.38s.18,1.02.55,1.38c.37.36.88.54,1.53.54Z"/>
        <path class="cls-1" d="M272.05,37.18v-9h1.38l.09,1.61c.29-.57.71-1.02,1.25-1.34.54-.33,1.16-.49,1.85-.49,1.06,0,1.91.32,2.55.97.63.65.95,1.64.95,2.98v5.26h-1.52v-5.1c0-.93-.19-1.63-.58-2.1-.39-.47-.97-.71-1.74-.71s-1.42.28-1.93.84c-.51.56-.77,1.36-.77,2.4v4.66h-1.52Z"/>
      </g>
      <g id="TQ3p1O">
        <g>
          <path class="cls-1" d="M291.06,26.68c2.59.16,4.76,2.22,4.97,4.85v.18c.03.18.03.36.01.53v.18c-.21,2.57-2.28,4.63-4.84,4.83h-.18c-.18.03-.36.03-.53.01h-.18c-2.63-.22-4.69-2.39-4.85-4.98v-.62s.02-.08.02-.12c.2-2.58,2.27-4.65,4.85-4.85.04,0,.08,0,.12-.02h.62ZM295.16,31.98c0-2.44-1.98-4.41-4.41-4.41s-4.41,1.98-4.41,4.41,1.98,4.41,4.41,4.41,4.41-1.98,4.41-4.41Z"/>
          <path class="cls-1" d="M290.2,34.48c-.19.19-.46.2-.64.02s-.18-.45,0-.63l1.89-1.89-1.89-1.89c-.18-.18-.17-.45,0-.62s.45-.19.63,0l2.2,2.2c.18.18.18.45,0,.63l-2.18,2.18Z"/>
        </g>
      </g>
    </g>
  </g>
</svg>