<?xml version="1.0" encoding="UTF-8"?>
<svg id="Layer_2" data-name="Layer 2" xmlns="http://www.w3.org/2000/svg" viewBox="0 -2 123.98 32.08">
  <defs>
    <style>
      .cls-1 {
        fill: #fff;
      }
    </style>
  </defs>
  <g id="Layer_1-2" data-name="Layer 1">
    <g>
      <g>
        <g>
          <path class="cls-1" d="M115.59,27.45h-10.04c-4.62,0-8.39-3.76-8.39-8.39v-10.04c0-4.62,3.76-8.39,8.39-8.39h10.04c4.62,0,8.39,3.76,8.39,8.39v10.04c0,4.62-3.76,8.39-8.39,8.39ZM105.55,3.08c-3.28,0-5.95,2.67-5.95,5.95v10.04c0,3.28,2.67,5.95,5.95,5.95h10.04c3.28,0,5.95-2.67,5.95-5.95v-10.04c0-3.28-2.67-5.95-5.95-5.95h-10.04Z"/>
          <path class="cls-1" d="M110.57,20.54c-3.58,0-6.5-2.92-6.5-6.5s2.92-6.5,6.5-6.5,6.5,2.92,6.5,6.5-2.92,6.5-6.5,6.5ZM110.57,9.98c-2.24,0-4.06,1.82-4.06,4.06s1.82,4.06,4.06,4.06,4.06-1.82,4.06-4.06-1.82-4.06-4.06-4.06Z"/>
          <circle class="cls-1" cx="117.45" cy="7.16" r="1.6"/>
        </g>
        <path class="cls-1" d="M74.92,2.4h-2.68l-8.09,8.46-6.23-8.69-7.83.24,9.48,13.22-9.84,10.29h2.68l8.31-8.69,6.19,8.64,7.83-.24-9.45-13.17,9.62-10.06ZM69.83,23.2l-1.62.05-5.67-7.92-1.15-1.6-6.38-8.9,1.62-.05,5.71,7.97,1.15,1.6,6.35,8.85Z"/>
        <g transform="translate(0,-2)">
          <rect class="cls-1" x=".27" y="8.87" width="5.94" height="19.22"/>
          <circle class="cls-1" cx="3.24" cy="3.24" r="3.24"/>
          <path class="cls-1" d="M26.42,10.6c-.5-.5-1.1-.92-1.76-1.21-.96-.56-2.07-.87-3.26-.87-2.61,0-4.86,1.53-5.9,3.74v-3.39h-5.94v19.22h5.94v-10.64c0-1.81,1.35-3.39,3.15-3.53.1,0,.19-.01.29-.01.01,0,.03,0,.04,0,1.81.02,3.24,1.56,3.24,3.37v10.81h5.94v-13.28c0-1.64-.66-3.12-1.74-4.2Z"/>
        </g>
      </g>
    </g>
  </g>
</svg>