<?xml version="1.0" encoding="UTF-8"?>
<svg id="Layer_2" data-name="Layer 2" xmlns="http://www.w3.org/2000/svg" viewBox="0 0 41.84 33.86">
  <defs>
    <style>
      .cls-1 {
        fill: #fff;
      }
    </style>
  </defs>
  <g id="Layer_1-2" data-name="Layer 1">
    <g>
      <path class="cls-1" d="M15.96,24.66c-2.35,3.16-5.62,5-9.07,5.18-1.66.08-3.24.04-4.89,0-1.15-.02-1.96-1.22-1.99-2.51-.03-1.27.72-2.64,1.86-2.65l4.53-.05c2.68-.03,4.98-1.59,6.75-3.97l9.57-12.89c1.39-1.87,3.2-3.21,5.31-3.21l5.76-.02.03-4.24c.15-.39.72-.38.98-.11l6.83,6.59c.1.1.21.23.22.33s-.11.28-.2.36l-6.94,6.7c-.29.11-.66.09-.89-.15l-.02-4.28-5.6.03c-.84,0-1.56.58-2.11,1.31l-10.12,13.57Z"/>
      <path class="cls-1" d="M28.1,29.31c-2.03,0-3.89-1.21-5.22-3.01l-1.51-2.03,2.9-3.91,1.81,2.42c.56.76,1.25,1.21,2.12,1.32h5.58s.02-4.2.02-4.2c.2-.42.83-.38,1.1,0l6.72,6.49c.08.07.17.2.2.27.03.09-.08.29-.16.37l-6.92,6.68c-.28.22-.75.2-.94-.15l-.02-4.24h-5.68Z"/>
      <path class="cls-1" d="M13.34,13.51c-1.75-2.66-4.19-4.25-6.94-4.28l-4.53-.05C.75,9.17,0,7.85,0,6.62c0-1.3.78-2.59,1.93-2.6l5.01-.02c3.62.26,6.93,2.23,9.31,5.6l-2.92,3.91Z"/>
    </g>
  </g>
</svg>