<?xml version="1.0" encoding="UTF-8"?>
<svg id="Layer_2" data-name="Layer 2" xmlns="http://www.w3.org/2000/svg" viewBox="0 0 134.86 48.46">
  <defs>
    <style>
      .cls-1 {
        font-family: RedHatDisplay-ExtraBold, 'Red Hat Display';
        font-size: 14.57px;
        font-variation-settings: 'wght' 800;
        font-weight: 700;
      }

      .cls-1, .cls-2 {
        fill: #fff;
      }
    </style>
  </defs>
  <g id="Layer_1-2" data-name="Layer 1">
    <g>
      <text class="cls-1" transform="translate(.25 44.62)"><tspan x="0" y="0">(grid of companies)</tspan></text>
      <g id="uuid-e93f43a8-6bd5-431c-80e1-3d913e10fe06" data-name="Layer 1-2">
        <g id="yNmG6z">
          <path class="cls-2" d="M94.89,14.02c-2.83,4.15-5.67,8.25-8.43,12.44-.15.22-.27.46-.36.73-.2.56.12.97.7.92.77-.09,1.5-.36,2.2-.7,1.51-.77,2.86-1.77,4.19-2.83,1.02-.82,2.01-1.7,3-2.57.12-.12.19-.24.17-.43-.2-1.55-.22-3.1,0-4.65.41-2.84,1.41-5.4,3.68-7.28,1.43-1.19,3.1-1.8,4.94-1.92,1.89-.12,3.71.09,5.41.94,2.14,1.09,3.51,2.81,4.02,5.16.43,1.89.44,3.81.36,5.72,0,.29-.03.58-.03.87s-.07.31-.32.31h-12.44c-.14,0-.29,0-.29.2-.16,1.17.37,2.76,1.28,3.9.92,1.17,2.21,1.65,3.66,1.72,2.64.12,4.94-.82,6.96-2.43.68-.53,1.33-1.11,1.92-1.74.15-.15.2-.31.19-.53-.12-1.09-.2-2.16-.15-3.25.09-2.5.56-4.88,1.91-7.05,1.22-1.95,2.84-3.28,5.02-3.69,0,0,.02,0,.02,0,2.75-.33,4.94.08,6.87,1.83.07.07.12.15.24.19h0c.09-.12.03-.26.03-.37V.41c0-.31,0-.41.39-.41h4.54c.26,0,.31.09.31.32l-.02,29.91c0,.2-.03.29-.29.29h-4.24c-.22,0-.73.09-.71-.44,0-.67.01-1.64,0-2.4h0s0,0,0,0c0-.09-.13-.12-.17-.03-.07.16-.18.35-.31.5-1.75,1.94-3.95,2.66-6.52,2.37-1.53-.17-2.88-.75-4.02-1.8-.68-.65-1.23-1.41-1.65-2.25-.11-.23-.27-.26-.46-.09-1.09.95-2.23,1.87-3.51,2.59-1.72.97-3.56,1.46-5.51,1.57-1.92.12-3.83-.03-5.65-.8-2.25-.95-3.74-2.62-4.71-4.83-.15-.36-.14-.36-.44-.09-1.8,1.62-3.69,3.11-5.84,4.29-1.11.61-2.26,1.14-3.52,1.33-1.28.2-2.55.15-3.71-.53-.61-.36-1.09-.89-1.33-1.58-.09-.26-.17-.2-.32-.07-1.06.87-2.18,1.63-3.51,2.01-1.6.46-3.15.29-4.6-.54-1.55-.89-2.11-2.42-1.6-4.14.37-1.24,1.06-2.3,1.82-3.28,1.14-1.48,2.47-2.77,3.78-4.08,1.21-1.23,2.47-2.38,3.51-3.74.53-.68,1-1.41,1.23-2.26.07-.31.12-.6.1-.92h0c-.09-.8-.46-1.16-1.28-1.17-.71-.03-1.36.2-1.99.48-1.6.73-3.01,1.75-4.37,2.86-2.52,2.03-4.71,4.34-6.76,6.84-2.67,3.27-5.23,6.62-7.64,10.08-.09.12-.19.19-.36.19h-5.21c-.07,0-.19.03-.2-.05-.03-.09.05-.14.12-.2h0c.65-.85,1.22-1.63,1.87-2.46l.1-.12c-.2.18-.78.54-1.3.86h0c-2.08,1.1-4.54,1.95-7.1,1.98-1.36.03-2.71.04-3.98-.59-.12-.05-.22-.03-.36,0h0c-1.5.53-3.01.7-4.6.51-.9-.12-1.75-.36-2.54-.83-.2-.12-.36-.1-.54,0-2.5,1.09-5.04,1.31-7.59.2-1.07-.46-1.89-1.23-2.42-2.26-.1-.2-.22-.2-.36-.03-1.23,1.5-2.72,2.54-4.63,2.86-2.16.39-4.22.03-6.03-1.29-.19-.12-.29-.12-.46,0-2.47,1.5-5.11,1.89-7.85,1-1.91-.61-3-2.03-3.51-3.93-.29-1.11-.32-2.23-.32-3.37v-10.26q0-.43-.41-.43H.31c-.22,0-.32-.05-.31-.31v-3.24c0-.26.09-.32.32-.32h2.76c.17,0,.3-.14.3-.3V3.17c0-.24.05-.34.31-.34h4.61c.29,0,.36.09.36.36v4.66c0,.29.1.37.37.37.9,0,1.8,0,2.71,0,.4,0,.36.07.36.36,0,1.02-.01,2.15,0,3.15,0,.44-.09.36-.36.36h-2.7c-.45,0-.34-.01-.34.4v11.47c.03,1.41.39,2.49,1.88,2.61.73.03,1.62-.25,2.18-.69.14-.11.19-.14.12-.29-1.04-2.45-1.26-5.04-1.11-7.64.12-2.3.66-4.48,1.91-6.42,1.34-2.11,3.25-3.42,5.75-3.74,2.62-.25,4.61.39,6.38,2.33.05.05.1.19.2.14.1-.03.07-.15.09-.24.07-.44-.02-.99.02-1.45h0c.03-.26.12-.34.36-.34h4.26c.17,0,.3.14.3.3v14.56c0,.51.03,1.02.14,1.53.22,1,.82,1.57,1.86,1.67.44.03.89-.03,1.31-.12.14-.03.2-.1.17-.26-.44-2.13-.24-4.26-.26-6.4-.03-5.16,0-10.33,0-15.49V.34c0-.17.14-.3.3-.3h4.7c.24,0,.26.12.26.29v22.98c0,.58.03,1.17.24,1.72.27.73.78,1.14,1.55,1.24.24.03.72.04.65-.16-.12-.46-.17-.99-.2-1.49-.07-1.33.15-2.6.6-3.83.85-2.31,1.92-4.32,3.59-6.14,2.41-2.61,4.71-4.23,7.73-5.62,2.23-.95,4.41-1.3,5.79-1.24.57,0,1.2,0,2.33.36h0c.81.34,1.73,1.21,1.89,2.65,0,.01,0,.02,0,.03.03,1.46-.46,2.74-1.28,3.93-1.33,1.91-3.1,3.27-5.14,4.31-2.57,1.31-5.33,1.99-8.19,2.21-.54.03-1.24.07-1.78.05-.14,0-.26,0-.34.15-.4.59-1.16,1.82-1.28,3.46-.12,1.59.67,3.51,2.67,3.81,1.02.18,2.87-.1,4.89-.99,2.48-1.11,4.31-2.93,6.18-4.58,1.62-1.41,2.88-3,4.07-4.78,1.45-2.16,2.94-4.27,4.24-6.54.2-.36.37-.7.53-1.09h0c.03-.12.1-.24,0-.34s-.2-.11-.31-.07c-.21.09-1.09.54-1.78.94,0,0-.02.01-.03.02-.17.13-.36.16-.45,0-.19-.33-.3-.59-.74-1.28-.12-.15-.09-.24.05-.34,1.33-1.02,2.81-1.72,4.49-1.89.65-.05,1.28.03,1.89.29,1.16.44,1.69,1.58,1.46,2.94-.22,1.36-.89,2.54-1.7,3.61-.07.09-.12.19-.2.27-.03.03-.05.09-.03.17.27-.29.53-.58.8-.85,2.33-2.38,4.92-4.44,8.02-5.77.87-.37,1.77-.68,2.72-.68,1.69-.03,3.15.44,4.05,1.99.6,1.07.51,2.18.09,3.28-.51,1.34-1.31,2.54-2.16,3.66-1.26,1.69-2.67,3.27-4.07,4.85-1.16,1.33-2.35,2.62-3.28,4.1-.29.44-.56.92-.65,1.48-.1.6.2.95.82.92,1.12-.07,2.06-.58,2.93-1.23,1.38-1,2.45-2.3,3.4-3.71,2.31-3.49,4.63-6.96,6.94-10.45.37-.58.77-1.16,1.16-1.74h0c.03-.07.13-.2.1-.24-.01-.08-.19-.05-.29-.05h-3.05c-.27,0-.34-.09-.34-.34,0-.54.03-1.18,0-1.72h0c0-.29.05-.39.37-.39,1.55,0,3.1-.01,4.63,0,.53,0,.43-.07.58-.29,1.69-2.38,3.67-5.2,5.36-7.59.19-.26.36-.36.68-.34h4.37c.12,0,.19.13.12.22-1,1.48-6.6,9.8-9.31,13.79ZM129.62,14.22c0-.14,0-.29-.09-.39-.5-.78-1.62-1.84-2.95-2.08-1.53-.27-2.84.09-3.85,1.33-.61.77-1,1.65-1.19,2.6-.51,2.52-.48,5.04.09,7.56.2.97.6,1.87,1.4,2.52,1.29,1.07,2.72,1.02,4.2.44,1.06-.41,1.61-1.24,2.25-2.13.12-.17.11-.34.11-.56,0-1.53.02-9.19.02-9.19v-.1ZM26.13,18.82v-4.6c-.01-.17-.01-.31-.13-.44-.52-.76-1.17-1.24-1.71-1.62,0,0-.01,0-.02-.01-1.32-.77-2.51-.74-3.89-.28-1.01.41-1.84,1.24-2.3,2.31-.56,1.29-.73,2.67-.77,4.05-.05,1.72,0,3.42.44,5.07.27,1,.7,1.94,1.57,2.57,1.29.92,2.69.85,4.07.22.99-.44,2.01-1.47,2.31-1.92.43-.6.41-1.06.41-1.3l.02-4.06M49.78,18.14c.99-.05,2.03-.24,2.98-.49,2.47-.68,4.71-1.8,6.54-3.66.7-.71,1.24-1.53,1.51-2.54.19-.7-.07-1.24-.68-1.41-.29-.09-.6-.12-.92-.07-.94.12-1.8.49-2.62.92-2.01,1.04-3.74,2.45-5.26,4.12-.8.87-1.57,1.84-2.15,2.86-.03.07-.08.17-.05.22.05.09.64.05.64.05h0ZM109.89,17.34c.32,0,.34,0,.32-.26-.03-.85-.07-1.7-.29-2.54-.24-.9-.61-1.72-1.36-2.31-.83-.66-1.8-.85-2.84-.78-1.31.09-2.31.68-2.96,1.8-.66,1.16-.85,2.43-.99,3.73-.03.29.07.36.36.36h7.76Z"/>
        </g>
      </g>
    </g>
  </g>
</svg>